<svg width="24" height="24" viewBox="0 0 24 24" fill="none" xmlns="http://www.w3.org/2000/svg">
<g id="chevron_left-24px">
<path id="Trac&#195;&#169; 2277" d="M8.70974 6.71071C8.8971 6.52446 9.15055 6.41992 9.41474 6.41992C9.67892 6.41992 9.93238 6.52446 10.1197 6.71071L14.7097 11.3007C14.896 11.4881 15.0005 11.7415 15.0005 12.0057C15.0005 12.2699 14.896 12.5234 14.7097 12.7107L10.1197 17.3007C9.92844 17.4645 9.68236 17.5501 9.43068 17.5404C9.17901 17.5307 8.94027 17.4264 8.76217 17.2483C8.58408 17.0702 8.47975 16.8314 8.47003 16.5798C8.4603 16.3281 8.54591 16.082 8.70974 15.8907L12.5897 12.0007L8.70974 8.12071C8.52349 7.93335 8.41895 7.6799 8.41895 7.41571C8.41895 7.15153 8.52349 6.89808 8.70974 6.71071Z" fill="#00967F"/>
</g>
</svg>
