<svg width="24" height="24" viewBox="0 0 24 24" fill="none" xmlns="http://www.w3.org/2000/svg">
<path d="M14.7104 6.71041C14.6179 6.61771 14.508 6.54416 14.387 6.49398C14.2661 6.4438 14.1364 6.41797 14.0054 6.41797C13.8744 6.41797 13.7448 6.4438 13.6238 6.49398C13.5028 6.54416 13.3929 6.61771 13.3004 6.71041L8.71041 11.3004C8.61771 11.3929 8.54416 11.5028 8.49398 11.6238C8.4438 11.7448 8.41797 11.8744 8.41797 12.0054C8.41797 12.1364 8.4438 12.2661 8.49398 12.387C8.54416 12.508 8.61771 12.6179 8.71041 12.7104L13.3004 17.3004C13.4917 17.4642 13.7378 17.5498 13.9895 17.5401C14.2411 17.5304 14.4799 17.4261 14.658 17.248C14.8361 17.0699 14.9404 16.8311 14.9501 16.5795C14.9598 16.3278 14.8742 16.0817 14.7104 15.8904L10.8304 12.0004L14.7104 8.12041C14.8954 7.93237 14.999 7.67918 14.999 7.41541C14.999 7.15165 14.8954 6.89845 14.7104 6.71041V6.71041Z" fill="white"/>
</svg>
