<svg width="351" height="373" viewBox="0 0 351 373" fill="none" xmlns="http://www.w3.org/2000/svg">
<g clip-path="url(#clip0_5527_26010)">
<path d="M269.119 231.428C226.52 259.193 189.676 276.165 158.504 284.736L158.42 261.119L113.323 274.83L113.239 291.717C16.5063 292.925 3.42809 189.21 69.4964 120.496C25.2463 222.942 176.048 206.203 240.889 215.747C257.988 218.265 269.119 222.604 269.119 231.428Z" fill="#FECC0B"/>
<path d="M311.973 297.77V310.255L283.889 318.8L283.908 306.308L311.973 297.77Z" fill="#22297C"/>
<path d="M164.895 338.168V351.841L158.419 353.809L136.199 360.579V346.91L158.419 340.138L164.895 338.168Z" fill="#22297C"/>
<path d="M131.565 349.672V363.343L113.323 368.908L102.869 372.083V358.412L113.323 355.238L131.565 349.672Z" fill="#22297C"/>
<path d="M324.67 240.273V265.552C324.67 270.313 320.438 276.311 310.815 279.777L282.346 288.439L271.765 291.657V329.703C271.5 337.109 265.681 340.813 260.923 342.677L228.511 352.543L213.971 356.966C213.971 356.966 181.917 366.745 181.631 366.806C175.081 368.237 172.525 365.016 172.178 361.977V335.952L213.973 323.255V338.521C213.973 343.107 228.387 342.004 228.514 335.656V269.545L271.069 256.596V273.356C273.708 278.34 283.848 276.931 283.935 270.137V252.679L311.975 244.15L324.67 240.273Z" fill="#22297C"/>
<path d="M272.294 227.365C335.78 178.692 375.988 86.2763 0 51.7185C328.733 -96.4167 443.009 108.856 272.294 227.365Z" fill="#22297C"/>
<path d="M213.971 273.964V303.041C213.971 306.089 211.112 310.321 205.76 311.739L172.176 321.96L164.896 324.182L158.42 326.15L136.2 332.901L131.565 334.319L113.324 339.863L102.87 343.059L101.409 343.503L71.5495 352.582C64.7141 353.703 58.0269 351.333 56.9688 346.233V321.749L101.409 308.226V327.187C102.15 330.192 112.646 329.388 113.049 324.542L113.239 291.719L113.324 274.832L158.42 261.121L158.505 284.738L158.611 308.546C158.822 312.501 169.784 310.069 169.742 305.308L169.657 287.445L172.176 286.685L213.971 273.964Z" fill="#22297C"/>
</g>
<defs>
<clipPath id="clip0_5527_26010">
<rect width="351" height="372.084" fill="white"/>
</clipPath>
</defs>
</svg>
