<svg width="24" height="24" viewBox="0 0 24 24" fill="none" xmlns="http://www.w3.org/2000/svg">
<g id="Mail">
<g id="Icon">
<path d="M2.40399 7.06158L12.0004 11.8592L21.5968 7.06158C21.5613 6.45011 21.2933 5.87537 20.8478 5.45505C20.4023 5.03474 19.8129 4.80067 19.2004 4.80078H4.80039C4.18789 4.80067 3.59853 5.03474 3.153 5.45505C2.70748 5.87537 2.43952 6.45011 2.40399 7.06158Z" fill="#111827"/>
<path d="M21.6004 9.74238L12.0004 14.5424L2.40039 9.74238V16.8008C2.40039 17.4373 2.65325 18.0478 3.10333 18.4978C3.55342 18.9479 4.16387 19.2008 4.80039 19.2008H19.2004C19.8369 19.2008 20.4474 18.9479 20.8974 18.4978C21.3475 18.0478 21.6004 17.4373 21.6004 16.8008V9.74238Z" fill="#111827"/>
</g>
</g>
</svg>
