<svg width="24" height="24" viewBox="0 0 24 24" fill="none" xmlns="http://www.w3.org/2000/svg">
<g id="print-24px">
<path id="Trac&#195;&#169; 2384" d="M19 8H5C4.20435 8 3.44129 8.31607 2.87868 8.87868C2.31607 9.44129 2 10.2044 2 11V15C2.00158 15.5299 2.2128 16.0377 2.58753 16.4125C2.96227 16.7872 3.47005 16.9984 4 17H6V19C6.00158 19.5299 6.2128 20.0377 6.58753 20.4125C6.96227 20.7872 7.47005 20.9984 8 21H16C16.5299 20.9984 17.0377 20.7872 17.4125 20.4125C17.7872 20.0377 17.9984 19.5299 18 19V17H20C20.5299 16.9984 21.0377 16.7872 21.4125 16.4125C21.7872 16.0377 21.9984 15.5299 22 15V11C22 10.2044 21.6839 9.44129 21.1213 8.87868C20.5587 8.31607 19.7956 8 19 8ZM15 19H9C8.73478 19 8.48043 18.8946 8.29289 18.7071C8.10536 18.5196 8 18.2652 8 18V14H16V18C16 18.2652 15.8946 18.5196 15.7071 18.7071C15.5196 18.8946 15.2652 19 15 19ZM19 12C18.8022 12 18.6089 11.9414 18.4444 11.8315C18.28 11.7216 18.1518 11.5654 18.0761 11.3827C18.0004 11.2 17.9806 10.9989 18.0192 10.8049C18.0578 10.6109 18.153 10.4327 18.2929 10.2929C18.4327 10.153 18.6109 10.0578 18.8049 10.0192C18.9989 9.98063 19.2 10.0004 19.3827 10.0761C19.5654 10.1518 19.7216 10.28 19.8315 10.4444C19.9414 10.6089 20 10.8022 20 11C20 11.2652 19.8946 11.5196 19.7071 11.7071C19.5196 11.8946 19.2652 12 19 12ZM17 3H7C6.73478 3 6.48043 3.10536 6.29289 3.29289C6.10536 3.48043 6 3.73478 6 4V6C6 6.26522 6.10536 6.51957 6.29289 6.70711C6.48043 6.89464 6.73478 7 7 7H17C17.2652 7 17.5196 6.89464 17.7071 6.70711C17.8946 6.51957 18 6.26522 18 6V4C18 3.73478 17.8946 3.48043 17.7071 3.29289C17.5196 3.10536 17.2652 3 17 3Z" fill="#191D34"/>
</g>
</svg>
