<svg width="172" height="54" viewBox="0 0 172 54" fill="none" xmlns="http://www.w3.org/2000/svg">
<rect x="0.5" y="0.5" width="171" height="53" rx="4.5" fill="#074A3E"/>
<rect x="0.5" y="0.5" width="171" height="53" rx="4.5" stroke="#07705D"/>
<g clip-path="url(#clip0_6448_8278)">
<path d="M32.6769 39.0485C32.6769 39.0485 32.3996 40.0728 31.7977 39.6107C31.7977 39.6107 31.3458 39.3123 30.7911 40.7719C30.7911 40.7719 30.4111 41.5672 29.9674 41.7001C29.9674 41.7001 30.5939 41.7921 31.2287 40.5348C31.2287 40.5348 31.4197 40.175 31.7669 40.2792C31.7669 40.2792 32.2311 40.5307 32.5187 40.0094C32.5187 40.0094 33.3548 40.3263 33.1966 38.8134C33.1966 38.8134 33.0898 39.5065 32.683 39.3736C32.683 39.3736 32.6954 39.2591 32.6748 39.0485M34.1641 37.3497C34.8995 37.3987 35.2754 36.119 35.2754 36.119C36.5593 35.0232 36.7441 31.7481 36.7441 31.7481C37.003 26.0914 33.3445 21.0296 33.3445 21.0296L33.9607 31.3475C34.3592 29.9389 34.3182 29.0905 34.3182 29.0905C34.3366 28.1869 33.9977 24.2924 33.9977 24.2924C35.8383 27.0993 36.1731 29.9409 36.1731 29.9409C36.4668 32.341 35.4418 33.8089 35.4418 33.8089C35.4685 33.2487 35.4582 32.7662 35.4007 32.5863C35.3227 32.341 35.259 32.5311 35.259 32.5311C35.335 34.7758 34.4003 35.3891 34.4003 35.3891C34.425 34.968 34.4168 34.5162 34.3798 34.324C34.3223 34.0562 34.2175 34.1789 34.2175 34.1789C34.2072 36.256 33.1309 36.5974 33.1309 36.5974C33.2849 36.2662 33.3794 35.659 33.3178 35.3789C33.2685 35.1602 33.1863 35.2583 33.1863 35.2583C33.0364 36.8345 31.9969 37.0328 31.9969 37.0328C29.9284 37.3722 30.0496 33.171 30.0496 33.171C30.2263 27.3794 28.5747 22.2889 28.5747 22.2889L27.981 23.4726C28.8397 26.5739 29.2628 31.7993 29.2628 31.7993L29.2156 33.3734C29.1951 34.3874 28.7965 35.8225 28.1228 35.982C27.8783 36.0229 27.6359 35.8266 27.525 35.5547C28.0755 34.1932 28.2481 32.619 28.2748 30.9386C28.2748 29.3154 27.8085 28.0029 27.3504 26.5678C27.2354 26.208 27.1779 26.0015 27.0217 25.4904C26.9457 25.2532 26.8389 24.9016 26.7691 24.687C26.6438 26.0076 26.4733 26.8683 26.2863 28.144C26.0173 29.7324 25.8488 32.6231 26.1241 34.4324C26.2021 34.8045 26.3089 35.5834 26.2699 35.5956C25.6516 36.4399 24.5198 36.9061 23.7638 36.9878C23.9775 37.2086 25.7646 37.2863 26.5801 36.7854C26.689 37.1371 26.8595 37.411 27.0608 37.6338C27.2313 37.8137 27.4264 37.9548 27.6318 38.0611C28.0981 38.2717 28.5336 38.1204 28.8746 37.5786C29.0574 37.3517 29.306 36.6894 29.4498 36.1783C30.1585 40.5511 32.2085 38.3228 32.2085 38.3228C33.5787 38.8359 34.1662 37.3456 34.1662 37.3456M27.0033 34.7411C26.9273 34.69 26.8862 34.461 26.8389 34.3608C26.2432 32.4473 26.5041 29.9573 26.613 29.3276C26.7177 28.6898 26.8081 28.4445 26.8081 28.4445C26.9437 28.7614 27.0854 29.0762 27.2272 29.4012C27.6647 30.4132 28.0344 31.4763 27.7982 32.7315C27.6996 33.5574 27.412 33.9929 27.1245 34.5264C27.0854 34.5959 27.0464 34.6675 27.0053 34.7411M29.5484 40.5471C29.6634 40.1995 29.5237 39.7048 29.3471 39.3634C29.2485 39.1242 29.0985 38.8625 29.0944 38.6029C29.1827 38.423 29.2895 38.5252 29.3779 38.5681C29.4046 38.5374 29.3779 38.5007 29.3923 38.4761C29.3676 38.3207 29.3388 38.0979 29.1992 38.0529C29.0862 38.0264 29.0266 38.1449 28.9896 38.2553C28.9219 38.7276 29.1766 39.2755 29.382 39.6557C29.4683 39.8601 29.4498 40.0687 29.3779 40.2547C29.0554 39.3899 28.7308 39.2755 28.5685 39.1814C28.4165 39.1221 28.2768 39.0772 28.2563 39.2734C28.2625 39.4595 28.322 39.809 28.5521 39.8765C28.6384 39.901 28.6671 39.7968 28.6754 39.7191C28.8438 39.5985 29.1745 40.0912 29.3635 40.2854C29.2012 40.6861 28.815 41.0173 28.7678 41.1317C28.7678 41.1317 29.3902 40.8721 29.5463 40.5511M31.7546 32.9666C31.7833 33.2508 31.9949 33.3755 32.188 33.3182C32.3482 33.261 32.4941 33.0995 32.5885 32.9502C32.5639 33.0647 32.6153 33.1792 32.6728 33.216C32.8535 33.3019 33.1719 33.4245 33.3219 33.2221C33.593 32.709 33.4842 32.2081 33.3897 31.6132C33.3897 31.6132 33.3815 31.509 33.3383 31.2187C33.1925 31.4211 33.1576 31.6418 33.1596 31.8688C33.174 32.1816 33.2664 32.5066 33.2459 32.803C33.0898 32.8194 32.9131 32.7969 32.8145 32.6293C32.794 32.1979 32.7426 31.7706 32.7426 31.3147C32.605 31.4067 32.529 31.6909 32.492 31.8708L32.5125 31.8463C32.6317 32.0466 32.5824 32.3717 32.5885 32.617C32.4509 32.8194 32.2373 32.8971 32.075 32.7949C31.7566 32.4535 32.1243 31.7911 32.1038 31.3597C31.9476 31.4067 31.7751 31.7114 31.8223 31.9199L31.8716 31.879C31.8758 32.2081 31.7299 32.6293 31.7566 32.9686M32.6317 27.8353L32.2332 28.5181C32.2332 28.5181 32.7488 29.5259 32.5639 31.2105C32.5639 31.2105 33.1699 29.6241 32.6317 27.8353ZM30.4152 27.6329C30.2797 27.6329 30.2468 28.0908 30.2673 28.2973C30.3187 28.4486 30.4625 28.4199 30.5672 28.3811C30.8076 28.7082 30.8713 29.2459 30.9904 29.6711C31.128 29.0905 31.1321 28.6101 31.2821 28.1256C31.315 27.9927 31.4012 28.007 31.4608 28.0765C31.58 28.2012 31.6087 28.2564 31.6128 28.4056C31.6991 28.467 31.886 27.9252 31.7587 27.6472C31.7032 27.5163 31.6005 27.408 31.4505 27.4489C31.3006 27.502 31.1609 28.0295 31.1034 28.3504C31.0602 28.5733 31.0418 28.8145 30.9863 28.9924C30.974 28.9106 30.9637 28.8472 30.939 28.7511C30.8302 28.3423 30.6925 27.8353 30.4132 27.6288M24.7786 25.4883C24.8279 25.0631 24.9963 24.6358 25.097 24.2536C25.1956 23.8856 25.2983 23.5932 25.401 23.1905L25.3291 23.2559C25.0929 23.8426 24.871 24.4396 24.7026 25.0611C24.5834 25.6008 24.4335 26.2836 24.6451 26.8233C24.7149 26.9766 24.8258 27.1668 24.9861 27.1116C25.4154 26.8765 25.4174 26.1057 25.4934 25.5231C25.516 25.3411 25.4626 25.5108 25.4544 25.5681C25.4544 25.5803 25.4318 25.7112 25.4298 25.7214C25.3558 26.0648 25.2326 26.2345 25.0538 26.2141C24.9409 26.2018 24.8464 26.0935 24.7991 25.932C24.7991 25.9258 24.795 25.9115 24.7909 25.9033C24.7909 25.8952 24.7827 25.8849 24.7827 25.8747C24.7663 25.7929 24.7622 25.705 24.7683 25.613C24.7724 25.5722 24.7745 25.5292 24.7827 25.4904M30.1297 22.1928C30.1811 21.7676 30.3454 21.3383 30.4481 20.9601C30.5467 20.5921 30.6494 20.2957 30.7542 19.8991L30.6802 19.9645C30.446 20.5553 30.2263 21.1482 30.0537 21.7697C29.9346 22.3094 29.7846 22.9901 29.9962 23.5299C30.064 23.6852 30.179 23.8733 30.3372 23.8181C30.7665 23.583 30.7665 22.8102 30.8446 22.2296C30.8672 22.0477 30.8137 22.2174 30.8014 22.2726C30.8014 22.2848 30.7809 22.4177 30.7788 22.4279C30.7049 22.7714 30.5816 22.9411 30.4009 22.9227C30.2858 22.9084 30.1934 22.8 30.1461 22.6406C30.1441 22.6324 30.14 22.6201 30.1379 22.6119C30.1379 22.6038 30.1297 22.5915 30.1297 22.5813C30.1112 22.5015 30.1112 22.4136 30.1153 22.3196C30.1194 22.2787 30.1215 22.2358 30.1297 22.1969M22.669 35.8164C20.1588 29.8244 24.4212 22.9309 26.4959 19.8561C29.0266 16.2703 29.1807 16.3623 30.1215 14.5654C30.9349 13.0076 30.8446 11.5418 30.4152 9.88379C30.4152 9.88379 30.2694 10.8078 29.4703 11.7482C28.6569 12.705 28.3857 12.8297 27.753 13.1895C27.8085 13.6004 27.9934 13.7865 27.9708 14.9497C27.9708 15.0131 27.9626 15.1378 27.9441 15.2318C27.4079 16.0598 25.4215 18.2616 23.77 21.4589C22.3321 24.2454 21.7877 26.0097 21.4611 27.7146C20.8592 30.8813 21.1057 32.9932 22.1739 36.2069C25.6003 44.9301 29.7332 45.6538 31.1075 49.534C31.2533 49.8754 31.2123 49.8448 31.3129 50.0063C31.1178 49.1885 30.9144 48.3606 30.3639 47.4406C27.7818 43.0412 25.744 43.17 22.6669 35.8205M30.633 45.4433C30.7234 45.4126 30.8199 45.4555 30.8959 45.5516C30.9 45.5557 30.9041 45.5639 30.9103 45.568C30.9144 45.5762 30.9206 45.5802 30.9226 45.5864C30.9575 45.6375 30.9781 45.6947 30.9986 45.7663C31.0068 45.7949 31.0151 45.8215 31.0192 45.8562C31.0849 46.1649 31.0623 46.5206 31.0787 46.8191C31.0952 47.1053 31.0911 47.3466 31.1095 47.6594L31.1486 47.5878C31.1856 47.1012 31.2061 46.6126 31.1814 46.122C31.1404 45.709 31.0869 45.1836 30.7911 44.8831C30.7008 44.7973 30.5714 44.7053 30.4604 44.7973C30.1934 45.108 30.3824 45.6416 30.4666 46.0729C30.4953 46.2058 30.4892 46.0688 30.4851 46.028C30.483 46.0198 30.4666 45.9237 30.4666 45.9155C30.4399 45.6518 30.4912 45.4923 30.633 45.4433ZM39.0489 30.5215C39.0119 25.9197 36.5059 20.6637 36.5059 20.6637C35.261 17.9958 31.1506 9.89197 31.1506 9.89197L31.7566 26.8785C32.3195 25.611 32.2845 23.8876 32.2845 23.8876C32.3215 22.0395 31.8429 14.4897 31.8429 14.4897C39.0777 26.4063 38.1595 32.3144 38.1595 32.3144C37.6151 38.5375 34.1415 41.0438 34.1415 41.0438C28.4145 44.969 23.9713 37.503 23.9713 37.503C28.4556 46.8641 33.6649 43.2497 33.6649 43.2497C39.5091 39.3327 39.0469 30.5215 39.0469 30.5215M23.5112 32.6395C23.6632 33.6944 23.9733 34.6859 23.9775 35.7939C23.9898 35.8041 23.9877 35.8164 24.0062 35.7817C24.1829 34.5326 23.7577 33.4225 23.6426 32.2368C23.8234 31.9935 24.1459 32.0609 24.3965 32.0589C24.4479 31.9444 24.4889 31.8054 24.4766 31.6562C24.3061 31.4129 24.1069 31.0919 23.8357 31.094C23.7392 31.098 23.6447 31.2902 23.5933 31.4374C23.5461 31.5723 23.5666 31.7502 23.5687 31.8565C23.6241 31.7502 23.618 31.6091 23.731 31.5539C23.8337 31.5151 23.9651 31.5539 24.0309 31.6439C23.9775 31.6848 23.9158 31.6786 23.846 31.6807C23.4927 31.7298 23.5091 32.2919 23.5132 32.6395M24.3123 28.7389C24.0863 28.9474 24.0206 29.3174 23.9631 29.6404C23.922 29.8612 23.9261 30.0963 23.846 30.2823C23.8357 30.2006 23.8296 30.1556 23.8008 30.0411C23.6919 29.6322 23.5564 29.1273 23.2749 28.9188C23.1435 28.8452 23.0818 29.4973 23.1291 29.5832C23.201 29.6936 23.3263 29.7058 23.4269 29.669C23.6714 29.9961 23.7207 30.4929 23.8337 30.9181H23.8789C23.9918 30.4009 23.9959 29.898 24.1438 29.4135C24.1767 29.2806 24.2404 29.346 24.2959 29.3828C24.3903 29.4687 24.4725 29.5443 24.4766 29.6915C24.5691 29.4871 24.7498 29.2091 24.6245 28.9372C24.5506 28.7777 24.3842 28.6755 24.3123 28.7389ZM28.8458 17.7893L28.4617 18.2329C28.4617 18.2329 28.7144 19.0691 28.3528 20.2977C28.3528 20.2977 29.0143 19.2142 28.8458 17.7893ZM27.3258 23.26C27.9071 21.925 28.6589 21.2729 28.6589 21.2729C30.1708 19.8807 29.8976 18.6561 29.8976 18.6561C29.4683 19.9277 28.4514 20.6616 28.4514 20.6616C27.3196 21.7247 27.3258 23.26 27.3258 23.26Z" fill="white"/>
<path d="M27.3849 4.53153C27.0994 4.34958 26.8857 4.17786 26.5756 4L26.0928 4.72166C26.366 4.94245 26.8796 5.23888 26.9227 5.26341C26.9227 5.26341 27.3993 4.5806 27.3849 4.53358M36.374 7.00316C36.3206 6.97249 36.1747 6.93365 35.9837 6.97862C35.7947 7.0236 35.5646 7.15035 35.3325 7.44882C35.16 7.66553 34.7923 8.09688 34.4163 8.46487C34.2171 8.59571 33.9583 8.72246 33.4591 8.5814C33.5105 8.55482 33.5536 8.52211 33.5906 8.49349C34.0055 8.1623 34.4163 7.38136 34.1123 6.98884C33.8186 6.61473 33.2948 6.39394 32.7627 6.56362C32.6456 6.5902 32.5019 6.66584 32.3457 6.77419C31.7151 7.21577 30.8791 8.1623 30.6634 8.4894C30.3963 8.52007 30.2238 8.44647 30.0985 8.31359V8.30745C29.8047 8.00284 29.4165 7.60011 28.5476 8.11528C27.9005 8.5078 27.428 9.14564 26.5242 10.4152C26.0497 11.0837 24.7391 11.0755 25.1109 9.46251C25.1109 9.45025 25.1212 9.393 25.1253 9.36029C25.9983 9.30101 26.9042 9.12315 27.4404 8.69792C27.5985 8.58957 27.7259 8.44034 27.7957 8.32585C27.9169 8.13368 27.9683 8.04986 28.0607 7.81067C28.0977 7.7105 28.3873 6.92751 27.7382 6.0648C27.6581 5.95645 27.387 5.56597 27.0501 5.63957C26.857 5.64775 26.5797 6.03004 26.4729 6.23448C26.2941 6.57793 26.0066 7.37523 26.4729 7.54286C26.5817 7.58171 26.7461 7.60215 26.8693 7.59397C27.3459 7.56944 27.4096 7.34456 27.5123 7.00316C27.5123 7.00316 27.6273 7.16057 27.6602 7.4202C27.693 7.69619 27.6396 7.84543 27.6396 7.84543C27.3603 8.10915 25.756 8.72655 23.0979 8.41785C22.2495 8.2727 22.6952 6.83347 22.8555 6.42665L22.7897 6.39598C22.1139 7.84747 21.8982 8.78174 22.7897 9.16813C23.0177 9.30101 23.975 9.42163 24.998 9.36643C24.9446 9.56882 24.9055 9.77121 24.8911 9.96951V10.2496C24.9076 10.4765 24.9589 10.6993 25.0616 10.8997C25.3595 11.513 25.9778 11.5825 26.3825 11.3086C26.97 10.9079 27.426 9.80801 28.0402 9.20492C28.5517 8.70201 29.096 8.57935 29.4288 8.76743C29.7595 8.95756 29.7657 9.25194 30.3244 9.24377C30.725 9.39709 31.2365 9.36029 31.9698 9.13337C32.0972 9.09044 32.2307 9.05569 32.3457 9.02502C32.6518 8.94529 32.8901 8.89827 32.8901 8.89827C32.8901 8.89827 32.9866 9.40527 33.5947 9.37461C34.0486 9.35007 34.402 9.12315 34.5971 8.76743C34.7265 8.5814 35.0244 8.26043 35.0326 8.26043C35.0326 8.29314 35.1394 8.36061 35.1682 8.39127C35.3058 8.52824 35.6612 8.85943 35.9837 9.00867C36.1706 9.09453 36.3411 9.12315 36.452 9.01889C36.9081 8.59775 36.9512 7.33639 36.374 7.00111M27.2411 6.66175C27.0727 6.98476 26.7399 6.9132 26.7255 6.6781C26.7091 6.45731 26.8241 6.36123 26.9207 6.34078C27.1076 6.3367 27.2678 6.61064 27.2411 6.66175ZM32.3437 8.28292C31.9349 8.38718 31.5015 8.45669 30.9941 8.51189C30.9941 8.51189 31.179 8.28292 31.4542 7.99058C31.635 7.78614 31.9287 7.39158 32.3416 7.22599C32.5368 7.1483 32.7566 7.12173 33.001 7.18306C33.305 7.29141 33.6501 7.43247 33.6912 7.7473C33.2249 8.0008 32.7997 8.16639 32.3396 8.28292M36.337 8.23794V8.26043C36.2528 8.26043 36.1172 8.19706 35.9796 8.11324C35.8317 8.01511 35.6817 7.89654 35.6242 7.8209C35.5975 7.8209 35.6037 7.82499 35.6037 7.80045H35.6242C35.6242 7.76161 35.7618 7.66144 35.881 7.6553C35.9159 7.6553 35.9488 7.65939 35.9796 7.66553C36.2384 7.72072 36.3411 7.95174 36.3575 8.23794H36.337ZM35.2339 9.51975C35.2072 9.50749 35.1784 9.50749 35.1435 9.50749C35.1394 9.50749 35.1394 9.50749 35.1394 9.50749C35.1004 9.5218 35.0696 9.5402 35.0388 9.56882C35.0182 9.58722 34.9977 9.60766 34.9751 9.62606C34.9586 9.63833 34.934 9.62606 34.9196 9.6465C34.9032 9.6649 34.9011 9.6833 34.8888 9.70375C34.8683 9.74872 34.8457 9.78961 34.8251 9.83663C34.7717 9.9368 34.669 10.0268 34.5745 10.086C34.3691 10.2148 34.1575 10.3293 33.9316 10.4172C33.8432 10.4458 33.757 10.4806 33.6666 10.5133C33.6296 10.5297 33.5803 10.5317 33.5515 10.5624H33.5454C33.5454 10.5726 33.5947 10.5624 33.6029 10.5624C33.7693 10.5562 33.9275 10.5113 34.0877 10.4908C34.215 10.4745 34.3157 10.4111 34.4184 10.3457C34.5006 10.2966 34.5786 10.2435 34.6526 10.1842C34.6957 10.1453 34.7471 10.1106 34.7861 10.0595C34.8395 9.99609 34.8806 9.88161 34.897 9.79983H34.9073C34.9073 9.79983 34.9299 9.82027 34.9381 9.8305C34.9689 9.86321 35.0593 9.94498 35.1374 9.97769C35.1805 9.99813 35.2195 10.0063 35.2442 9.98382C35.3572 9.88774 35.3715 9.5954 35.236 9.51567M35.2236 9.80188C35.2236 9.80188 35.2236 9.80188 35.2195 9.80801C35.201 9.80801 35.1682 9.7937 35.1374 9.77121C35.1004 9.74668 35.0675 9.7201 35.049 9.70375C35.0429 9.70375 35.0449 9.70579 35.0449 9.69966H35.049C35.049 9.69966 35.1065 9.67104 35.1148 9.66695H35.1374C35.199 9.68126 35.2216 9.73646 35.2257 9.80188H35.2216H35.2236Z" fill="white"/>
<path d="M12.702 47.3264H12.435V50.0004H13.7784V49.7734H12.702V47.3264ZM20.9885 47.3264L19.8875 50.0004H20.1443L20.436 49.2848H21.7897L22.0793 50.0004H22.3566L21.2905 47.3264H20.9865H20.9885ZM20.5366 49.0559L21.1221 47.5799L21.7054 49.0559H20.5387H20.5366ZM16.8596 47.9969C16.8596 47.6616 17.1637 47.5512 17.441 47.5512C17.6217 47.5512 17.8087 47.5839 17.9299 47.6453L17.973 47.4143C17.7881 47.3468 17.5766 47.3284 17.4451 47.3284C16.9706 47.3284 16.5947 47.588 16.5947 48.001C16.5947 48.6797 17.8272 48.7431 17.8272 49.248C17.8272 49.614 17.554 49.7775 17.2232 49.7775C16.9726 49.7775 16.7878 49.7223 16.6296 49.6242L16.6008 49.8859C16.7426 49.9452 16.948 49.9963 17.2089 49.9963C17.6238 49.9963 18.0922 49.7898 18.0922 49.2664C18.0922 48.5121 16.8576 48.51 16.8576 47.9908M9.10104 47.3223L8 49.9963H8.25677L8.54641 49.2808H9.90216L10.1918 49.9963H10.4691L9.40095 47.3223H9.10104ZM8.64912 49.0518L9.23456 47.5758L9.81589 49.0518H8.64706H8.64912ZM42.3478 47.3223L41.2468 49.9963H41.5056L41.7932 49.2808H43.151L43.4365 49.9963H43.7159L42.6498 47.3223H42.3478ZM41.8939 49.0518L42.4793 47.5758L43.0606 49.0518H41.8939ZM47.0621 49.6774H47.0539L45.6879 47.3243H45.3531V49.9983H45.6181V47.6923H45.6242L46.9677 49.9983H47.3251V47.3243H47.0601V49.6774H47.0621ZM39.1166 48.602V48.5918C39.4473 48.5264 39.6055 48.324 39.6055 47.9826C39.6055 47.4695 39.1947 47.3243 38.7551 47.3243H38.1183V49.9983H38.6503C39.209 49.9983 39.6856 49.8184 39.6856 49.2358C39.6856 48.8862 39.4535 48.6634 39.1166 48.6041M38.3894 47.5553H38.7551C38.9831 47.5553 39.3405 47.6105 39.3405 47.9969C39.3405 48.4201 38.9667 48.4957 38.6873 48.4957H38.3894V47.5553ZM38.6585 49.7734H38.3812V48.7247H38.6154C39.0098 48.7247 39.4206 48.7738 39.4206 49.2501C39.4206 49.6774 39.016 49.7734 38.6585 49.7734ZM49.5867 48.5857L50.8891 47.3264H50.544L49.3341 48.5243V47.3264H49.0711V50.0004H49.3341V48.6634L50.6344 50.0004H51L49.5867 48.5857ZM28.2418 47.3264L27.1408 50.0004H27.3955L27.6872 49.2848H29.0429L29.3305 50.0004H29.6099L28.5438 47.3264H28.2439H28.2418ZM27.7858 49.0559L28.3712 47.5799L28.9526 49.0559H27.7878H27.7858ZM33.9956 49.6814L33.0137 47.3284H32.6028V50.0024H32.8699V47.5942H32.8781L33.8867 50.0024H34.1147L35.0925 47.5942H35.1007V50.0024H35.3657V47.3284H34.9836L33.9976 49.6814H33.9956ZM24.2752 47.3284H24.0102V50.0024H25.3537V49.7755H24.2752V47.3284Z" fill="white"/>
</g>
<g clip-path="url(#clip1_6448_8278)">
<path d="M147.552 17.0256C146.569 17.0256 145.585 17.0256 144.603 17.0256C144.538 17.0256 144.472 17.0108 144.407 17.0023C144.452 16.952 144.492 16.8969 144.543 16.8528C145.155 16.305 145.764 15.7512 146.383 15.212C147.508 14.2367 148.7 13.3458 149.974 12.5653C150.532 12.2234 151.115 11.9207 151.686 11.5985C151.716 11.5813 151.737 11.547 151.76 11.5213C151.732 11.5139 151.703 11.5041 151.674 11.498C151.284 11.4171 150.893 11.3375 150.504 11.2566C149.581 11.0642 148.642 11.0091 147.704 11.0005C146.976 10.9944 146.247 11.0434 145.521 11.139C144.858 11.2272 144.203 11.3461 143.554 11.5066C142.673 11.7247 141.818 12.0212 140.986 12.379C139.124 13.1804 137.485 14.3016 136.042 15.6948C135.617 16.1065 135.228 16.5575 134.849 17.0108C133.697 18.393 132.829 19.9309 132.21 21.6071C131.686 23.0285 131.399 24.4953 131.275 25.9963C131.265 26.1164 131.3 26.1777 131.437 26.1826C131.677 26.1912 131.915 26.2169 132.155 26.2304C132.914 26.2708 133.672 26.3296 134.432 26.3419C135.716 26.3627 137 26.3541 138.283 26.3554C138.493 26.3554 138.489 26.3492 138.542 26.1569C138.652 25.7537 138.754 25.3469 138.882 24.9487C139.632 22.6131 140.996 20.633 142.629 18.8084C142.723 18.7031 142.823 18.6638 142.965 18.6651C143.588 18.6712 144.209 18.6675 144.831 18.6675C146.135 18.6675 147.439 18.6675 148.744 18.6675C148.79 18.6675 148.838 18.6822 148.884 18.6908C148.862 18.7325 148.847 18.7778 148.817 18.8133C148.453 19.2545 148.072 19.6846 147.725 20.1367C146.922 21.1795 146.263 22.3031 145.854 23.5518C145.706 24.0051 145.594 24.4708 145.472 24.9315C145.454 25.0026 145.47 25.0835 145.469 25.1594C145.541 25.1472 145.619 25.1472 145.687 25.1214C146.848 24.6668 147.975 24.1461 149.056 23.5309C150.192 22.8852 151.257 22.1438 152.252 21.3057C153.256 20.4602 154.209 19.5694 155.013 18.5352C155.613 17.7632 156.135 16.9435 156.525 16.0502C156.682 15.6911 156.806 15.3211 156.78 14.918C156.747 14.4254 156.46 14.1448 155.959 14.1411C155.527 14.1374 155.136 14.2918 154.754 14.4584C153.347 15.0723 152.083 15.9093 150.901 16.8663C150.768 16.9741 150.644 17.0231 150.472 17.0219C149.499 17.0158 148.525 17.0182 147.553 17.0182L147.552 17.0256ZM91.0302 26.4228C92.2737 26.4228 93.5185 26.4228 94.762 26.4228C94.8323 26.4228 94.9026 26.4191 94.9729 26.4228C95.0795 26.4301 95.1159 26.3737 95.1159 26.2818C95.1159 26.0858 95.1134 25.8897 95.1184 25.6949C95.1197 25.6312 95.141 25.5687 95.1536 25.5062C95.1925 25.5479 95.2351 25.5871 95.2703 25.6324C95.7496 26.2353 96.3896 26.5588 97.155 26.6556C97.7021 26.7254 98.248 26.7401 98.7989 26.6617C99.7814 26.522 100.544 26.0833 100.997 25.195C101.029 25.1337 101.064 25.0749 101.091 25.0124C101.132 24.9242 101.17 24.9021 101.229 25.0014C101.305 25.1276 101.38 25.255 101.465 25.3739C101.82 25.8701 102.24 26.299 102.839 26.5073C103.688 26.8014 104.562 26.8565 105.429 26.6372C106.328 26.4093 107.022 25.891 107.432 25.0516C107.481 24.9511 107.549 24.8604 107.608 24.7649C107.668 24.8617 107.731 24.9585 107.788 25.0577C108.309 25.9522 109.06 26.4411 110.15 26.4289C111.896 26.4081 113.641 26.4252 115.387 26.4203C115.655 26.4203 115.927 26.4068 116.192 26.3615C117.304 26.1728 118.192 25.6618 118.721 24.6485C118.736 24.6203 118.758 24.597 118.778 24.5713C118.795 24.5958 118.813 24.619 118.825 24.646C118.99 25.0283 119.23 25.3616 119.522 25.6594C119.999 26.1458 120.568 26.4252 121.272 26.424C122.917 26.4203 124.562 26.4289 126.207 26.4166C126.563 26.4142 126.926 26.375 127.275 26.3002C128.093 26.125 128.739 25.6961 129.153 24.9695C129.457 24.4365 129.542 23.852 129.541 23.2528C129.541 22.7835 129.517 22.3154 129.513 21.8461C129.507 20.8572 129.508 19.8684 129.503 18.8795C129.502 18.518 129.492 18.1566 129.487 17.7938C129.487 17.697 129.473 17.6198 129.344 17.6198C128.852 17.6223 128.362 17.6223 127.87 17.6198C127.782 17.6198 127.739 17.6603 127.734 17.7399C127.729 17.8086 127.732 17.8772 127.734 17.9458C127.745 18.4825 127.76 19.0204 127.768 19.5571C127.779 20.4284 127.801 21.2996 127.788 22.1696C127.782 22.6364 127.851 23.1008 127.783 23.5701C127.669 24.3654 127.051 24.8261 126.335 24.8335C124.579 24.8531 122.824 24.8396 121.068 24.8421C120.822 24.8421 120.598 24.7771 120.382 24.6693C119.87 24.4144 119.524 24.0113 119.28 23.5126C119.047 23.0347 118.994 22.52 118.985 22.0054C118.962 20.6354 118.963 19.2655 118.954 17.8943C118.954 17.8453 118.957 17.7963 118.954 17.7473C118.949 17.6676 118.908 17.6235 118.82 17.6235C118.328 17.6235 117.837 17.6235 117.345 17.6235C117.257 17.6235 117.221 17.6591 117.222 17.7473C117.23 18.3636 117.235 18.98 117.239 19.5963C117.246 20.7212 117.257 21.8473 117.259 22.9722C117.259 23.3765 117.202 23.7748 116.926 24.0995C116.535 24.559 116.016 24.8225 115.414 24.8286C113.548 24.8494 111.682 24.8372 109.818 24.8359C109.718 24.8359 109.618 24.8225 109.521 24.8028C108.646 24.6166 107.878 23.7172 107.791 22.7112C107.736 22.0801 107.736 21.4429 107.728 20.8082C107.717 19.8194 107.721 18.8305 107.717 17.8416C107.717 17.6309 107.712 17.626 107.499 17.6235C107.067 17.6198 106.637 17.6211 106.205 17.6235C105.985 17.6235 105.985 17.626 105.982 17.8514C105.982 17.8907 105.982 17.9299 105.982 17.9691C106 19.0253 106.027 20.0804 106.038 21.1366C106.048 21.998 106.067 22.8607 106.034 23.7209C106.004 24.521 105.465 24.983 104.789 25.13C104.144 25.2697 103.512 25.1717 102.911 24.9401C102.217 24.673 101.716 24.1938 101.504 23.4795C101.419 23.1927 101.355 22.8901 101.35 22.5923C101.326 21.2616 101.327 19.9309 101.319 18.5989C101.319 18.5597 101.317 18.5205 101.319 18.4813C101.325 18.3587 101.275 18.3097 101.14 18.3122C100.739 18.3195 100.339 18.3146 99.937 18.3146C99.5982 18.3146 99.5944 18.3146 99.5982 18.632C99.617 20.2347 99.6396 21.8387 99.6546 23.4415C99.6559 23.6253 99.6333 23.8103 99.6007 23.9917C99.4928 24.5945 99.0473 25.0148 98.4362 25.1337C97.8929 25.2391 97.3658 25.1656 96.8413 25.0295C95.9667 24.8028 95.4472 24.238 95.2201 23.3986C95.1222 23.0359 95.1222 22.6634 95.1209 22.2933C95.1147 21.0888 95.1184 19.8855 95.1184 18.681C95.1184 18.6124 95.1159 18.5438 95.1184 18.4751C95.1234 18.3489 95.0645 18.3085 94.9365 18.3109C94.5349 18.3183 94.1346 18.3134 93.7331 18.3134C93.5097 18.3134 93.398 18.4208 93.398 18.6357C93.398 20.6232 93.3993 22.6107 93.3993 24.5982C93.3993 24.8151 93.4457 24.8421 93.1948 24.8421C91.1983 24.8408 89.2019 24.8384 87.2067 24.8421C86.8629 24.8421 86.5579 24.7416 86.2794 24.559C85.4963 24.0444 85.135 23.2883 85.0998 22.3999C85.0484 21.1109 85.0521 19.8194 85.0333 18.5278C85.0295 18.3024 85.0333 18.0769 85.0308 17.8527C85.0283 17.626 85.027 17.6235 84.8062 17.6223C84.3846 17.6198 83.9629 17.6198 83.5426 17.6223C83.3004 17.6235 83.2929 17.6272 83.2979 17.8723C83.3104 18.3992 83.3418 18.9261 83.3456 19.453C83.3531 20.6477 83.3594 21.8412 83.343 23.0359C83.338 23.3925 83.2841 23.7539 83.0419 24.0554C82.6466 24.5455 82.1158 24.8176 81.4947 24.8261C79.7392 24.8519 77.9836 24.8372 76.2281 24.8408C75.9822 24.8408 75.7551 24.7881 75.538 24.6779C74.5968 24.1988 74.1413 23.428 74.1313 22.4061C74.1175 20.9479 74.1175 19.4897 74.1112 18.0316C74.1112 17.9727 74.1137 17.9139 74.1112 17.8551C74.1024 17.6652 74.0987 17.6591 73.9029 17.6578C73.4913 17.6554 73.0798 17.6578 72.6694 17.6578C72.3231 17.6578 72.3557 17.6309 72.3582 17.9507C72.3683 19.1148 72.3846 20.2789 72.3908 21.4429C72.3959 22.471 72.4046 23.4991 72.3858 24.5271C72.3783 24.9536 72.3394 25.3861 72.2528 25.804C71.988 27.0734 71.3732 28.1554 70.3379 28.9886C69.6704 29.5266 68.9099 29.8721 68.0554 30.0069C67.7505 30.0547 67.4393 30.0669 67.1306 30.0878C67.0101 30.0964 66.97 30.1245 67.0314 30.2458C67.241 30.6649 67.4418 31.0877 67.6501 31.5067C67.6827 31.5729 67.7178 31.6268 67.8295 31.6182C68.6 31.557 69.3391 31.3805 70.0468 31.0779C71.3079 30.5399 72.2666 29.6663 72.9919 28.5389C73.6168 27.5685 73.9606 26.5024 74.0786 25.3641C74.0886 25.2709 74.1225 25.179 74.1451 25.0871C74.2053 25.1582 74.2681 25.228 74.3245 25.3028C74.8641 26.0221 75.5543 26.4375 76.5042 26.4277C78.2296 26.4081 79.955 26.4215 81.6804 26.4228C82.2062 26.4228 82.7106 26.3137 83.1887 26.1103C83.8952 25.8089 84.4649 25.3506 84.8024 24.6521C84.8187 24.619 84.8551 24.5958 84.8827 24.5676C84.8965 24.6019 84.9103 24.6374 84.9254 24.6717C85.0747 25.005 85.2793 25.304 85.5265 25.5748C86.0472 26.1446 86.6859 26.4375 87.4827 26.4264C88.6661 26.4093 89.8506 26.4215 91.0339 26.4215L91.0302 26.4228ZM138.169 30.0486C138.169 29.6969 138.169 29.344 138.169 28.9923C138.169 28.8061 138.155 28.7914 137.965 28.7963C137.795 28.7999 137.626 28.8244 137.457 28.822C136.715 28.8159 135.973 28.8085 135.232 28.7926C134.601 28.7791 133.971 28.7607 133.341 28.7325C132.711 28.7031 132.082 28.6602 131.453 28.6198C131.368 28.6149 131.322 28.6198 131.335 28.724C131.461 29.6895 131.639 30.6453 131.929 31.5778C132.731 34.1559 134.101 36.4057 136.054 38.3111C137.366 39.5928 138.861 40.6246 140.535 41.4149C142.491 42.3388 144.555 42.851 146.717 42.9723C147.958 43.0422 149.194 42.9711 150.425 42.7628C151.798 42.5312 153.118 42.1477 154.383 41.5852C157.387 40.2484 159.774 38.2167 161.537 35.4928C162.542 33.9403 163.245 32.2677 163.649 30.4725C163.808 29.7667 163.906 29.0548 163.989 28.3392C164.006 28.1848 163.999 28.0267 164 27.8699C164 27.8466 163.985 27.8233 163.976 27.8001C163.96 27.8099 163.94 27.816 163.927 27.8295C163.9 27.8576 163.873 27.8871 163.848 27.9177C162.804 29.1443 161.706 30.3243 160.578 31.4773C159.2 32.8853 157.772 34.2454 156.267 35.5247C155.307 36.3407 154.319 37.125 153.244 37.7928C151.389 38.9458 149.404 39.7497 147.192 39.9543C146.291 40.0376 145.395 40.0425 144.5 39.882C143.064 39.6247 141.85 38.9752 140.848 37.9423C139.946 37.011 139.322 35.9192 138.898 34.7147C138.365 33.2038 138.171 31.6391 138.171 30.0486H138.169ZM126.975 33.2136C126.975 32.0679 126.975 30.9235 126.975 29.7778C126.975 29.4383 127.035 29.4322 126.611 29.4359C126.31 29.4383 126.009 29.4359 125.709 29.4359C125.278 29.4359 125.314 29.3967 125.314 29.8072C125.314 32.0581 125.314 34.3103 125.314 36.5613C125.314 36.6299 125.308 36.6985 125.314 36.7672C125.326 36.897 125.266 36.935 125.138 36.9326C124.789 36.9265 124.44 36.9326 124.091 36.9301C123.863 36.9289 123.859 36.9252 123.858 36.6985C123.855 36.092 123.858 35.4842 123.858 34.8777C123.858 34.1241 123.858 33.3705 123.858 32.6169C123.858 32.427 123.853 32.4233 123.66 32.4221C123.258 32.4196 122.858 32.4221 122.456 32.4208C122.21 32.4196 122.227 32.4184 122.227 32.6439C122.227 33.77 122.227 34.8948 122.227 36.0209C122.227 36.2758 122.222 36.5307 122.229 36.7843C122.232 36.9007 122.185 36.9375 122.071 36.9326C121.692 36.9167 121.312 36.9056 120.933 36.897C120.834 36.8946 120.785 36.8615 120.79 36.7598C120.794 36.6912 120.79 36.6226 120.79 36.5539C120.79 35.2514 120.79 33.9501 120.79 32.6475C120.79 32.4245 120.786 32.4221 120.563 32.4208C119.57 32.4208 118.576 32.4172 117.584 32.4233C117.365 32.4245 117.142 32.4355 116.93 32.4821C116.444 32.5875 115.991 32.7688 115.685 33.1806C115.228 33.792 115.104 34.4672 115.292 35.2024C115.42 35.6999 115.678 36.1006 116.149 36.3456C116.536 36.5454 116.953 36.6397 117.388 36.6434C117.94 36.6483 118.491 36.6434 119.043 36.6458C119.074 36.6458 119.105 36.6704 119.136 36.6838C119.121 36.7083 119.111 36.7365 119.091 36.7561C118.94 36.9007 118.744 36.8946 118.555 36.8946C117.332 36.8958 116.108 36.8946 114.883 36.8946C114.683 36.8946 114.483 36.8921 114.282 36.8946C114.196 36.8946 114.152 36.8652 114.154 36.777C114.157 36.7083 114.154 36.6397 114.154 36.5711C114.154 35.298 114.154 34.0261 114.154 32.7529C114.154 32.6843 114.152 32.6157 114.154 32.5471C114.158 32.465 114.129 32.4184 114.036 32.4196C113.575 32.4208 113.114 32.4221 112.652 32.4196C112.556 32.4196 112.533 32.4674 112.536 32.5471C112.538 32.6157 112.536 32.6843 112.536 32.7529C112.536 33.8692 112.538 34.9855 112.534 36.1006C112.534 36.3616 112.512 36.6226 112.499 36.8836C112.219 36.8872 111.938 36.8909 111.658 36.8946C111.648 36.8946 111.638 36.8946 111.628 36.8946C111.538 36.9007 111.504 36.8554 111.507 36.7721C111.509 36.7034 111.507 36.6348 111.507 36.5662C111.507 35.2931 111.507 34.0211 111.507 32.748C111.507 32.6794 111.504 32.6108 111.507 32.5422C111.51 32.4564 111.471 32.4196 111.382 32.4196C110.921 32.4208 110.46 32.4184 109.998 32.4245C109.961 32.4245 109.905 32.4833 109.893 32.525C109.875 32.5887 109.888 32.661 109.888 32.7296C109.888 34.0126 109.888 35.2943 109.888 36.5772C109.888 36.6458 109.899 36.7169 109.883 36.7819C109.872 36.8247 109.821 36.8885 109.786 36.8897C109.495 36.8983 109.204 36.8934 108.914 36.8958C108.819 36.8958 108.796 36.8456 108.797 36.7659C108.799 36.6973 108.797 36.6287 108.797 36.5601C108.797 35.385 108.797 34.2111 108.797 33.036C108.797 32.8889 108.789 32.7419 108.8 32.5961C108.812 32.4466 108.745 32.4159 108.607 32.4184C108.185 32.4257 107.765 32.4184 107.343 32.4221C107.149 32.4233 107.144 32.4319 107.136 32.6218C107.133 32.6806 107.136 32.7394 107.136 32.7983C107.136 34.0518 107.136 35.3041 107.136 36.5576C107.136 36.636 107.147 36.7169 107.13 36.7917C107.12 36.8321 107.061 36.8885 107.021 36.8909C106.712 36.9105 106.403 36.924 106.094 36.9289C105.905 36.9326 105.901 36.924 105.9 36.7279C105.897 36.1802 105.9 35.6313 105.9 35.0835C105.9 34.3005 105.896 33.5175 105.901 32.7345C105.904 32.3473 105.855 32.4245 105.566 32.4221C105.255 32.4196 104.944 32.4196 104.634 32.4221C104.231 32.4245 104.247 32.3596 104.249 32.8007C104.249 34.0934 104.249 35.385 104.249 36.6777C104.249 36.9289 104.246 36.9338 103.986 36.9301C103.607 36.924 103.228 36.9093 102.849 36.8958C102.74 36.8921 102.632 36.8836 102.523 36.8774C102.565 36.7745 102.6 36.6691 102.649 36.5699C102.991 35.8739 103.149 35.1521 102.969 34.3839C102.693 33.2051 101.774 32.4257 100.446 32.4221C99.3434 32.4184 98.2392 32.4221 97.1362 32.4208C96.7899 32.4208 96.83 32.4686 96.8288 32.1304C96.8275 31.3376 96.8288 30.5448 96.8288 29.752C96.8288 29.4383 96.8689 29.48 96.5351 29.4788C96.1737 29.4763 95.8123 29.4776 95.4522 29.4788C95.1009 29.48 95.151 29.4481 95.151 29.7765C95.1498 31.9993 95.151 34.2209 95.151 36.4437C95.151 36.4927 95.1561 36.5417 95.151 36.5907C95.136 36.7181 95.1899 36.761 95.3217 36.7586C95.7433 36.7525 96.1637 36.7561 96.5853 36.7561C96.8263 36.7561 96.8313 36.7892 96.8313 36.5196C96.83 35.717 96.83 34.9144 96.8313 34.1118C96.8313 33.7859 96.7899 33.8275 97.1124 33.8263C97.9744 33.8251 98.8377 33.8288 99.6998 33.8239C100.128 33.8214 100.5 33.966 100.843 34.2001C101.02 34.3201 101.158 34.4843 101.214 34.6853C101.37 35.2404 101.314 35.7722 100.948 36.2415C100.598 36.6912 100.119 36.897 99.543 36.897C98.1388 36.8958 96.7346 36.897 95.3305 36.897C95.0996 36.897 94.8687 36.9019 94.6378 36.8946C94.5199 36.8909 94.4785 36.9314 94.481 37.0465C94.4872 37.321 94.481 37.5943 94.4835 37.8687C94.4847 38.2131 94.4508 38.1653 94.7859 38.1653C97.7849 38.169 100.784 38.1714 103.783 38.1726C105.82 38.1726 107.855 38.1677 109.892 38.1665C110.914 38.1665 111.938 38.1653 112.961 38.1665C113.287 38.1665 113.6 38.1236 113.859 37.908C113.917 37.8602 113.955 37.8577 114.004 37.9214C114.164 38.131 114.4 38.169 114.646 38.1714C114.787 38.1714 114.927 38.1665 115.068 38.1665C116.482 38.1665 117.896 38.1665 119.31 38.1665C119.624 38.1665 119.928 38.1138 120.209 37.9754C120.297 37.9325 120.363 37.8136 120.445 37.8087C120.501 37.805 120.56 37.9447 120.633 38.0011C120.701 38.0538 120.785 38.104 120.869 38.1163C121.075 38.1469 121.284 38.1702 121.493 38.1714C123.559 38.1751 125.625 38.1763 127.691 38.1714C127.92 38.1714 128.153 38.1518 128.375 38.1052C128.931 37.9901 129.355 37.7095 129.497 37.1372C129.541 36.9595 129.564 36.7708 129.564 36.587C129.567 34.3165 129.566 32.0447 129.566 29.7741C129.566 29.7251 129.561 29.6761 129.566 29.627C129.582 29.5057 129.521 29.4763 129.409 29.4776C129.058 29.4812 128.707 29.4788 128.356 29.4788C128.084 29.4788 127.947 29.6107 127.947 29.8746C127.947 31.9503 127.95 34.0248 127.944 36.1006C127.944 36.2831 127.911 36.4706 127.857 36.6446C127.829 36.7353 127.735 36.8505 127.65 36.8725C127.471 36.9203 127.276 36.9203 127.088 36.9252C127.053 36.9252 126.995 36.8664 126.982 36.8247C126.965 36.761 126.977 36.6887 126.977 36.6201C126.977 35.4842 126.977 34.3495 126.977 33.2136H126.975ZM163.952 25.3922C163.919 25.1141 163.9 24.8898 163.863 24.6681C163.686 23.5812 163.422 22.5139 163.031 21.4797C162.534 20.1649 161.872 18.9359 161.046 17.7889C160.951 17.6566 160.947 17.6566 160.847 17.784C160.603 18.0941 160.375 18.4163 160.118 18.7141C159.198 19.7814 158.139 20.7041 157.006 21.5495C155.765 22.4759 154.453 23.2993 153.101 24.0603C151.395 25.0197 149.636 25.8775 147.838 26.6568C146.963 27.0354 146.081 27.3981 145.198 27.7584C145.045 27.8209 144.991 27.8956 144.993 28.0598C145.001 28.6946 145.004 29.3281 145.096 29.9591C145.2 30.6821 145.411 31.367 145.819 31.9834C146.383 32.8375 147.155 33.4207 148.182 33.6597C148.68 33.7761 149.18 33.8055 149.694 33.7785C150.265 33.7491 150.824 33.6707 151.38 33.5457C152.467 33.3019 153.483 32.8816 154.473 32.3914C155.679 31.7935 156.819 31.0901 157.895 30.2924C158.978 29.4886 160.054 28.6737 161.12 27.8478C161.991 27.1739 162.843 26.4779 163.701 25.7905C163.848 25.6741 164.021 25.5675 163.954 25.391L163.952 25.3922ZM83.8161 29.0585C83.8161 28.795 83.8111 28.5304 83.8186 28.2669C83.8224 28.1358 83.7935 28.0709 83.6379 28.0733C83.1172 28.0807 82.5964 28.0794 82.0757 28.0733C81.9414 28.0721 81.9038 28.1235 81.905 28.2461C81.91 28.7644 81.9088 29.2827 81.905 29.7998C81.905 29.9077 81.9339 29.9603 82.0556 29.9591C82.5964 29.9554 83.1373 29.9567 83.6781 29.9591C83.7785 29.9591 83.8199 29.9211 83.8186 29.8207C83.8136 29.567 83.8174 29.3121 83.8174 29.0585H83.8161ZM85.8402 29.9591C86.1112 29.9591 86.381 29.9554 86.652 29.9603C86.7675 29.9628 86.8102 29.9224 86.8102 29.8072C86.8051 29.2889 86.8051 28.7705 86.8102 28.251C86.8114 28.1039 86.7424 28.0721 86.6081 28.0733C86.1175 28.0782 85.6256 28.0782 85.135 28.0733C85.0007 28.0721 84.9304 28.1027 84.9317 28.2498C84.9367 28.7681 84.9367 29.2864 84.9317 29.8059C84.9317 29.9211 84.9731 29.9616 85.0885 29.9591C85.3395 29.9542 85.5892 29.9579 85.8402 29.9579V29.9591ZM124.696 14.7868C124.696 15.0503 124.696 15.315 124.696 15.5784C124.696 15.6654 124.705 15.7279 124.822 15.7267C125.352 15.723 125.883 15.7242 126.414 15.7267C126.518 15.7267 126.556 15.6838 126.555 15.5858C126.552 15.0478 126.552 14.5099 126.555 13.9732C126.555 13.8654 126.499 13.8433 126.406 13.8433C125.876 13.8445 125.345 13.8458 124.814 13.8433C124.72 13.8433 124.695 13.8838 124.696 13.9671C124.699 14.2403 124.696 14.5148 124.696 14.7881V14.7868ZM127.708 14.766C127.708 15.0405 127.71 15.3137 127.708 15.587C127.708 15.685 127.743 15.7267 127.847 15.7267C128.368 15.7242 128.89 15.723 129.411 15.7267C129.523 15.7267 129.572 15.6924 129.571 15.576C129.567 15.0478 129.566 14.5197 129.571 13.9916C129.572 13.8727 129.526 13.8409 129.414 13.8409C128.904 13.8445 128.392 13.8482 127.881 13.8384C127.722 13.836 127.701 13.9021 127.705 14.0308C127.713 14.2746 127.708 14.5197 127.708 14.7648V14.766ZM115.848 29.0119C115.848 29.2754 115.851 29.5388 115.847 29.8023C115.846 29.904 115.857 29.964 115.99 29.9628C116.52 29.9554 117.05 29.9579 117.581 29.9616C117.689 29.9616 117.715 29.9162 117.714 29.8207C117.71 29.2938 117.709 28.7656 117.714 28.2387C117.715 28.1052 117.66 28.0745 117.536 28.0758C117.025 28.0807 116.516 28.0831 116.005 28.0758C115.861 28.0733 115.843 28.137 115.845 28.251C115.85 28.5046 115.846 28.7583 115.846 29.0119H115.848ZM120.722 29.0291C120.722 28.7742 120.716 28.5193 120.725 28.2657C120.728 28.1321 120.697 28.0721 120.543 28.0758C120.042 28.0843 119.54 28.0819 119.038 28.077C118.918 28.077 118.855 28.099 118.856 28.2363C118.862 28.7644 118.86 29.2938 118.856 29.8219C118.856 29.9199 118.884 29.9628 118.992 29.9628C119.524 29.9591 120.055 29.9591 120.587 29.9628C120.693 29.9628 120.723 29.9199 120.722 29.8231C120.717 29.5584 120.721 29.295 120.721 29.0303L120.722 29.0291ZM123.854 30.9075C123.879 30.5044 123.53 30.1821 123.123 30.1834C122.683 30.1846 122.358 30.4848 122.351 30.9088C122.343 31.3033 122.676 31.628 123.092 31.6366C123.524 31.6452 123.854 31.3291 123.854 30.9063V30.9075ZM123.854 28.8183C123.854 28.3956 123.53 28.0831 123.094 28.0868C122.67 28.0917 122.345 28.4201 122.35 28.8428C122.353 29.2349 122.692 29.54 123.119 29.5388C123.545 29.5376 123.853 29.2362 123.854 28.8183ZM106.652 39.4409C106.654 38.9985 106.359 38.7044 105.91 38.7032C105.476 38.7032 105.147 39.0157 105.153 39.4384C105.16 39.8489 105.446 40.1356 105.904 40.1491C106.34 40.1614 106.67 39.8207 106.652 39.4409ZM104.202 38.7106C103.771 38.7093 103.447 39.0255 103.449 39.4494C103.452 39.8563 103.762 40.1577 104.205 40.1565C104.722 40.1565 104.966 39.768 104.956 39.4164C104.944 39.0132 104.631 38.7118 104.202 38.7106Z" fill="#005243"/>
<path d="M147.552 17.0252C148.524 17.0252 149.498 17.0216 150.471 17.0289C150.641 17.0289 150.767 16.9811 150.9 16.8733C152.083 15.9163 153.347 15.0794 154.753 14.4655C155.135 14.2988 155.526 14.1444 155.958 14.1481C156.46 14.1518 156.747 14.4324 156.779 14.925C156.805 15.3294 156.681 15.6982 156.524 16.0572C156.132 16.9493 155.612 17.7702 155.012 18.5422C154.209 19.5752 153.255 20.4672 152.251 21.3127C151.255 22.1521 150.191 22.8922 149.055 23.538C147.975 24.1531 146.847 24.6739 145.686 25.1285C145.619 25.1542 145.542 25.1542 145.467 25.1665C145.467 25.0905 145.452 25.0096 145.471 24.9385C145.593 24.4766 145.703 24.0122 145.853 23.5588C146.262 22.3102 146.921 21.1877 147.724 20.1437C148.073 19.6916 148.451 19.2615 148.815 18.8204C148.844 18.7848 148.861 18.7383 148.883 18.6978C148.837 18.6893 148.789 18.6746 148.743 18.6746C147.439 18.6733 146.135 18.6746 144.83 18.6746C144.208 18.6746 143.587 18.6782 142.964 18.6721C142.822 18.6709 142.722 18.7101 142.628 18.8155C140.995 20.6388 139.631 22.619 138.881 24.9557C138.753 25.3539 138.651 25.7608 138.541 26.1639C138.488 26.3563 138.492 26.3624 138.282 26.3624C136.999 26.3612 135.715 26.3697 134.431 26.3489C133.672 26.3367 132.913 26.2778 132.154 26.2374C131.914 26.2252 131.676 26.1982 131.436 26.1896C131.299 26.1847 131.264 26.1222 131.274 26.0034C131.398 24.5023 131.684 23.0356 132.209 21.6142C132.828 19.9379 133.696 18.3989 134.848 17.0179C135.227 16.5633 135.615 16.1123 136.041 15.7019C137.483 14.3086 139.122 13.1874 140.985 12.3861C141.818 12.027 142.672 11.7317 143.553 11.5136C144.2 11.3531 144.856 11.233 145.52 11.146C146.245 11.0504 146.975 11.0002 147.702 11.0075C148.641 11.0161 149.58 11.0713 150.503 11.2636C150.893 11.3445 151.284 11.4242 151.673 11.505C151.702 11.5112 151.73 11.5197 151.759 11.5283C151.734 11.554 151.715 11.5884 151.685 11.6055C151.114 11.9278 150.531 12.2304 149.972 12.5723C148.697 13.3529 147.505 14.2425 146.382 15.2191C145.761 15.7582 145.154 16.3121 144.541 16.8598C144.491 16.9051 144.451 16.9591 144.406 17.0093C144.471 17.0179 144.536 17.0326 144.602 17.0326C145.584 17.0338 146.568 17.0326 147.551 17.0326L147.552 17.0252Z" fill="#048E94"/>
<path d="M91.0304 26.4218C89.8471 26.4218 88.6626 26.4083 87.4793 26.4267C86.6824 26.439 86.0425 26.1449 85.523 25.5751C85.2758 25.3043 85.07 25.0053 84.9219 24.672C84.9069 24.6377 84.893 24.6022 84.8792 24.5678C84.8516 24.596 84.8152 24.6193 84.7989 24.6524C84.4614 25.3508 83.8917 25.8079 83.1852 26.1106C82.7084 26.314 82.2039 26.4243 81.6769 26.423C79.9515 26.4206 78.2261 26.4083 76.5007 26.4279C75.5508 26.439 74.8619 26.0223 74.3211 25.3031C74.2646 25.2283 74.2019 25.1597 74.1416 25.0874C74.119 25.1793 74.0839 25.2712 74.0751 25.3643C73.9572 26.5027 73.6121 27.5687 72.9884 28.5392C72.2631 29.6665 71.3044 30.5402 70.0433 31.0781C69.3356 31.3808 68.5965 31.5572 67.826 31.6185C67.7144 31.6271 67.6792 31.5732 67.6466 31.507C67.4383 31.0879 67.2375 30.6652 67.028 30.2461C66.9677 30.1248 67.0066 30.0966 67.1271 30.088C67.4358 30.0672 67.747 30.055 68.0519 30.0072C68.9064 29.8724 69.6681 29.5268 70.3345 28.9889C71.3697 28.1557 71.9846 27.0737 72.2493 25.8042C72.3359 25.3864 72.3748 24.9538 72.3823 24.5274C72.4012 23.4993 72.3924 22.4713 72.3874 21.4432C72.3811 20.2791 72.3648 19.115 72.3547 17.951C72.3522 17.6311 72.3196 17.6581 72.6659 17.6581C73.0775 17.6581 73.4891 17.6557 73.8994 17.6581C74.0952 17.6593 74.099 17.6655 74.1077 17.8554C74.1102 17.9142 74.1077 17.973 74.1077 18.0318C74.114 19.49 74.1128 20.9482 74.1278 22.4063C74.1379 23.4295 74.5946 24.199 75.5345 24.6781C75.7516 24.7884 75.9787 24.8423 76.2246 24.8411C77.9802 24.8374 79.7357 24.8521 81.4912 24.8264C82.1123 24.8178 82.6431 24.5458 83.0384 24.0557C83.2806 23.7542 83.3345 23.3927 83.3396 23.0362C83.3546 21.8427 83.3496 20.648 83.3421 19.4532C83.3383 18.9263 83.3069 18.3994 83.2944 17.8725C83.2894 17.6275 83.2969 17.625 83.5391 17.6226C83.9607 17.6201 84.3823 17.6201 84.8027 17.6226C85.0248 17.6226 85.0261 17.6262 85.0273 17.8529C85.0298 18.0784 85.0273 18.3039 85.0298 18.5281C85.0486 19.8184 85.0449 21.1099 85.0963 22.4002C85.1315 23.2886 85.4929 24.0434 86.2759 24.5593C86.5544 24.7431 86.8594 24.8436 87.2032 24.8423C89.1996 24.8387 91.1961 24.8399 93.1913 24.8423C93.4422 24.8423 93.3958 24.8154 93.3958 24.5985C93.3958 22.611 93.3958 20.6234 93.3946 18.6359C93.3946 18.4219 93.5062 18.3145 93.7296 18.3137C94.1311 18.3137 94.5327 18.3186 94.933 18.3112C95.061 18.3088 95.1212 18.3492 95.1149 18.4754C95.1124 18.544 95.1149 18.6127 95.1149 18.6813C95.1149 19.8858 95.1112 21.0891 95.1174 22.2936C95.1187 22.6637 95.1187 23.0362 95.2166 23.3989C95.4437 24.2382 95.9632 24.8031 96.8378 25.0298C97.3623 25.1658 97.8894 25.2393 98.4327 25.134C99.0438 25.0151 99.4893 24.5948 99.5972 23.9919C99.6298 23.8106 99.6537 23.6243 99.6512 23.4418C99.6361 21.8378 99.6135 20.235 99.5947 18.6323C99.5909 18.3149 99.5947 18.3149 99.9335 18.3149C100.335 18.3149 100.737 18.3198 101.137 18.3124C101.27 18.31 101.32 18.359 101.315 18.4815C101.314 18.5207 101.315 18.56 101.315 18.5992C101.323 19.9299 101.323 21.2619 101.346 22.5926C101.351 22.8891 101.415 23.193 101.501 23.4797C101.713 24.1929 102.214 24.6732 102.907 24.9404C103.509 25.1719 104.14 25.27 104.786 25.1303C105.461 24.9832 106.001 24.5213 106.031 23.7211C106.063 22.8609 106.045 21.9983 106.035 21.1369C106.023 20.0806 105.997 19.0256 105.978 17.9693C105.978 17.9301 105.978 17.8909 105.978 17.8517C105.981 17.6275 105.981 17.625 106.201 17.6238C106.633 17.6226 107.065 17.6213 107.495 17.6238C107.707 17.625 107.712 17.6299 107.713 17.8419C107.718 18.8308 107.713 19.8196 107.725 20.8085C107.732 21.4432 107.734 22.0792 107.788 22.7114C107.875 23.7175 108.642 24.6169 109.518 24.8031C109.615 24.8239 109.715 24.8362 109.814 24.8362C111.68 24.8374 113.546 24.8497 115.411 24.8288C116.013 24.8227 116.531 24.558 116.923 24.0998C117.2 23.775 117.256 23.3768 117.255 22.9724C117.254 21.8476 117.243 20.7215 117.235 19.5966C117.231 18.9803 117.226 18.3639 117.219 17.7476C117.219 17.6593 117.254 17.6238 117.342 17.6238C117.834 17.6238 118.324 17.6238 118.816 17.6238C118.904 17.6238 118.944 17.6667 118.951 17.7476C118.954 17.7966 118.951 17.8456 118.951 17.8946C118.959 19.2645 118.958 20.6357 118.982 22.0056C118.991 22.5191 119.043 23.0349 119.277 23.5128C119.52 24.0115 119.867 24.4147 120.379 24.6696C120.594 24.7774 120.819 24.8423 121.065 24.8423C122.82 24.8399 124.576 24.8534 126.331 24.8337C127.048 24.8252 127.665 24.3657 127.78 23.5704C127.847 23.1011 127.778 22.6367 127.785 22.1698C127.797 21.2998 127.776 20.4286 127.764 19.5574C127.757 19.0207 127.742 18.4828 127.731 17.9461C127.729 17.8774 127.727 17.8088 127.731 17.7402C127.736 17.6606 127.778 17.6201 127.866 17.6201C128.358 17.6226 128.849 17.6226 129.341 17.6201C129.47 17.6201 129.482 17.6973 129.484 17.7941C129.489 18.1556 129.499 18.5171 129.5 18.8798C129.505 19.8686 129.504 20.8575 129.51 21.8463C129.514 22.3157 129.536 22.7837 129.538 23.253C129.539 23.8522 129.455 24.4367 129.15 24.9698C128.736 25.6964 128.089 26.1253 127.271 26.3005C126.924 26.3752 126.56 26.4145 126.203 26.4169C124.558 26.4292 122.913 26.4206 121.268 26.4243C120.564 26.4255 119.996 26.1461 119.519 25.6596C119.227 25.3619 118.987 25.0274 118.821 24.6463C118.81 24.6193 118.79 24.596 118.775 24.5715C118.756 24.5973 118.732 24.6205 118.717 24.6487C118.189 25.6621 117.3 26.1731 116.189 26.3618C115.925 26.4071 115.652 26.4194 115.383 26.4206C113.638 26.4255 111.892 26.4071 110.147 26.4292C109.056 26.4426 108.306 25.9537 107.785 25.058C107.727 24.9587 107.665 24.8632 107.604 24.7651C107.545 24.8607 107.478 24.9514 107.429 25.0519C107.018 25.8912 106.324 26.4095 105.426 26.6375C104.56 26.8568 103.684 26.8017 102.836 26.5076C102.236 26.2993 101.816 25.8704 101.462 25.3741C101.377 25.254 101.301 25.1278 101.226 25.0016C101.167 24.9036 101.129 24.9257 101.088 25.0127C101.059 25.0751 101.024 25.134 100.994 25.1952C100.541 26.0836 99.7779 26.5223 98.7954 26.662C98.2445 26.7404 97.6986 26.7257 97.1515 26.6558C96.3861 26.5578 95.7461 26.2355 95.2668 25.6327C95.2316 25.5886 95.189 25.5481 95.1501 25.5065C95.1375 25.569 95.1174 25.6327 95.1149 25.6952C95.1099 25.8912 95.1137 26.0873 95.1124 26.2821C95.1124 26.374 95.076 26.4304 94.9694 26.423C94.8991 26.4181 94.8288 26.423 94.7586 26.423C93.515 26.423 92.2702 26.423 91.0267 26.423L91.0304 26.4218Z" fill="white"/>
<path d="M138.17 30.0493C138.17 31.6398 138.366 33.2033 138.898 34.7154C139.324 35.9199 139.946 37.013 140.848 37.943C141.85 38.976 143.064 39.6254 144.5 39.8827C145.395 40.0432 146.291 40.0383 147.192 39.955C149.403 39.7504 151.389 38.9466 153.244 37.7935C154.32 37.1245 155.307 36.3415 156.266 35.5254C157.772 34.2461 159.199 32.886 160.578 31.4781C161.706 30.325 162.804 29.145 163.848 27.9184C163.873 27.8878 163.9 27.8584 163.927 27.8302C163.94 27.8179 163.96 27.8106 163.976 27.8008C163.985 27.8241 164 27.8473 164 27.8706C163.999 28.0275 164.006 28.1855 163.989 28.3399C163.905 29.0555 163.807 29.7687 163.649 30.4733C163.245 32.2684 162.541 33.941 161.537 35.4935C159.774 38.2187 157.387 40.2491 154.383 41.586C153.118 42.1484 151.798 42.5319 150.425 42.7635C149.194 42.9706 147.958 43.0417 146.717 42.9731C144.555 42.8517 142.491 42.3396 140.535 41.4156C138.861 40.6253 137.366 39.5935 136.054 38.3118C134.102 36.4052 132.732 34.1554 131.929 31.5785C131.639 30.646 131.461 29.6903 131.335 28.7247C131.322 28.6205 131.368 28.6144 131.453 28.6205C132.082 28.661 132.711 28.7039 133.341 28.7333C133.971 28.7627 134.602 28.7811 135.232 28.7933C135.973 28.8092 136.715 28.8166 137.456 28.8227C137.626 28.8239 137.795 28.8007 137.965 28.797C138.155 28.7921 138.169 28.8068 138.169 28.993C138.169 29.3447 138.169 29.6976 138.169 30.0493H138.17Z" fill="white"/>
<path d="M126.976 33.2143C126.976 34.3502 126.976 35.4849 126.976 36.6208C126.976 36.6894 126.964 36.7617 126.981 36.8254C126.992 36.8671 127.05 36.9271 127.086 36.9259C127.275 36.921 127.469 36.921 127.649 36.8732C127.735 36.8499 127.828 36.736 127.856 36.6453C127.91 36.4713 127.941 36.2838 127.942 36.1012C127.947 34.0255 127.946 31.951 127.946 29.8752C127.946 29.6114 128.082 29.4794 128.355 29.4794C128.706 29.4794 129.058 29.4819 129.408 29.4782C129.52 29.477 129.581 29.5064 129.565 29.6277C129.559 29.6755 129.565 29.7257 129.565 29.7748C129.565 32.0453 129.566 34.3171 129.562 36.5877C129.562 36.7715 129.541 36.959 129.496 37.1379C129.353 37.7101 128.929 37.9907 128.374 38.1059C128.151 38.1525 127.918 38.1721 127.69 38.1721C125.623 38.177 123.558 38.177 121.491 38.1721C121.283 38.1721 121.073 38.1488 120.868 38.1169C120.785 38.1047 120.699 38.0544 120.632 38.0017C120.559 37.9454 120.5 37.8045 120.443 37.8094C120.362 37.8155 120.294 37.9331 120.207 37.976C119.926 38.1145 119.623 38.1672 119.309 38.1672C117.895 38.1672 116.481 38.1672 115.066 38.1672C114.926 38.1672 114.785 38.1733 114.645 38.1721C114.398 38.1696 114.163 38.1316 114.002 37.9221C113.953 37.8596 113.916 37.8608 113.858 37.9086C113.598 38.1243 113.287 38.1672 112.96 38.1672C111.937 38.1647 110.913 38.1659 109.89 38.1672C107.854 38.1684 105.818 38.1733 103.782 38.1733C100.783 38.1733 97.7836 38.1696 94.7845 38.1659C94.4482 38.1659 94.4834 38.2137 94.4821 37.8694C94.4809 37.5949 94.4859 37.3217 94.4796 37.0472C94.4771 36.9332 94.5185 36.8916 94.6365 36.8953C94.8673 36.9026 95.0982 36.8977 95.3291 36.8977C96.7333 36.8977 98.1374 36.8977 99.5416 36.8977C100.119 36.8977 100.597 36.6931 100.947 36.2421C101.312 35.7728 101.369 35.241 101.213 34.686C101.157 34.485 101.019 34.3208 100.842 34.2007C100.499 33.9667 100.126 33.8221 99.6985 33.8245C98.8364 33.8294 97.9731 33.8245 97.111 33.827C96.7898 33.827 96.8312 33.7865 96.8299 34.1125C96.8286 34.9151 96.8286 35.7177 96.8299 36.5203C96.8299 36.7887 96.8249 36.7568 96.584 36.7568C96.1623 36.7568 95.7407 36.7531 95.3203 36.7592C95.1886 36.7617 95.1346 36.7188 95.1497 36.5914C95.1547 36.5436 95.1497 36.4933 95.1497 36.4443C95.1497 34.2215 95.1497 32 95.1497 29.7772C95.1497 29.4488 95.0995 29.4807 95.4508 29.4794C95.8122 29.4782 96.1736 29.4782 96.5338 29.4794C96.8675 29.4819 96.8261 29.4402 96.8274 29.7527C96.8286 30.5455 96.8274 31.3383 96.8274 32.1311C96.8274 32.4693 96.7885 32.4215 97.1348 32.4215C98.2378 32.424 99.3421 32.4203 100.445 32.4227C101.771 32.4264 102.691 33.2057 102.967 34.3845C103.147 35.1528 102.99 35.8745 102.647 36.5705C102.598 36.6698 102.563 36.7764 102.522 36.8781C102.631 36.8842 102.739 36.8928 102.848 36.8965C103.227 36.9087 103.606 36.9234 103.985 36.9308C104.245 36.9357 104.247 36.9308 104.247 36.6784C104.247 35.3856 104.247 34.0941 104.247 32.8014C104.247 32.3602 104.23 32.4252 104.632 32.4227C104.944 32.4203 105.255 32.4203 105.565 32.4227C105.853 32.4252 105.901 32.348 105.9 32.7352C105.895 33.5182 105.899 34.3012 105.899 35.0842C105.899 35.6319 105.897 36.1809 105.899 36.7286C105.899 36.9247 105.904 36.932 106.093 36.9296C106.402 36.9247 106.712 36.9112 107.019 36.8916C107.059 36.8891 107.118 36.8328 107.128 36.7923C107.147 36.7176 107.135 36.6367 107.135 36.5583C107.135 35.3048 107.135 34.0524 107.135 32.7989C107.135 32.7401 107.132 32.6813 107.135 32.6225C107.142 32.4325 107.147 32.424 107.342 32.4227C107.763 32.4191 108.185 32.4264 108.605 32.4191C108.743 32.4166 108.81 32.4472 108.799 32.5967C108.787 32.7425 108.796 32.8908 108.796 33.0366C108.796 34.2117 108.796 35.3856 108.796 36.5607C108.796 36.6294 108.797 36.698 108.796 36.7666C108.795 36.845 108.817 36.8965 108.913 36.8965C109.204 36.894 109.495 36.8989 109.785 36.8904C109.82 36.8904 109.87 36.8254 109.881 36.7825C109.898 36.7176 109.886 36.6465 109.886 36.5779C109.886 35.295 109.886 34.0132 109.886 32.7303C109.886 32.6617 109.874 32.5894 109.891 32.5257C109.903 32.484 109.959 32.4264 109.997 32.4252C110.459 32.4178 110.919 32.4215 111.381 32.4203C111.47 32.4203 111.509 32.457 111.505 32.5428C111.503 32.6114 111.505 32.6801 111.505 32.7487C111.505 34.0218 111.505 35.2937 111.505 36.5669C111.505 36.6355 111.508 36.7041 111.505 36.7727C111.503 36.856 111.537 36.9014 111.627 36.8953C111.637 36.8953 111.647 36.8953 111.657 36.8953C111.937 36.8916 112.218 36.8879 112.498 36.8842C112.51 36.6232 112.532 36.3622 112.533 36.1012C112.537 34.9849 112.534 33.8686 112.534 32.7536C112.534 32.685 112.537 32.6163 112.534 32.5477C112.532 32.4668 112.554 32.4191 112.651 32.4203C113.113 32.4227 113.573 32.4227 114.035 32.4203C114.128 32.4203 114.157 32.4656 114.153 32.5477C114.15 32.6163 114.153 32.685 114.153 32.7536C114.153 34.0267 114.153 35.2986 114.153 36.5718C114.153 36.6404 114.155 36.709 114.153 36.7776C114.15 36.8658 114.194 36.8965 114.281 36.8953C114.482 36.8928 114.681 36.8953 114.882 36.8953C116.105 36.8953 117.329 36.8953 118.554 36.8953C118.743 36.8953 118.939 36.9014 119.089 36.7568C119.11 36.7372 119.12 36.709 119.135 36.6845C119.103 36.671 119.073 36.6465 119.042 36.6465C118.49 36.6441 117.939 36.649 117.387 36.6441C116.951 36.6404 116.533 36.546 116.148 36.3463C115.675 36.1012 115.418 35.7005 115.291 35.203C115.103 34.4678 115.227 33.7927 115.684 33.1812C115.99 32.7707 116.443 32.5882 116.929 32.4828C117.141 32.4362 117.364 32.4252 117.582 32.424C118.575 32.4178 119.569 32.4203 120.561 32.4215C120.785 32.4215 120.788 32.4252 120.788 32.6482C120.788 33.9507 120.788 35.2521 120.788 36.5546C120.788 36.6232 120.792 36.6918 120.788 36.7605C120.782 36.8622 120.831 36.8953 120.932 36.8977C121.31 36.9063 121.691 36.9173 122.07 36.9332C122.184 36.9381 122.232 36.9026 122.228 36.785C122.221 36.5301 122.225 36.2765 122.225 36.0216C122.225 34.8955 122.225 33.7706 122.225 32.6445C122.225 32.4191 122.209 32.4203 122.455 32.4215C122.856 32.424 123.257 32.4215 123.658 32.4227C123.852 32.4227 123.857 32.4276 123.857 32.6176C123.859 33.3712 123.857 34.1247 123.857 34.8783C123.857 35.4849 123.855 36.0927 123.857 36.6992C123.857 36.9259 123.862 36.9283 124.09 36.9308C124.439 36.9332 124.788 36.9271 125.136 36.9332C125.264 36.9357 125.323 36.8977 125.312 36.7678C125.306 36.7004 125.312 36.6306 125.312 36.562C125.312 34.311 125.312 32.0588 125.312 29.8078C125.312 29.3973 125.277 29.4366 125.707 29.4366C126.009 29.4366 126.31 29.4378 126.61 29.4366C127.033 29.4329 126.972 29.439 126.974 29.7784C126.974 30.9241 126.974 32.0686 126.974 33.2143H126.976ZM119.175 34.5548C119.175 34.36 119.175 34.164 119.175 33.9691C119.174 33.6934 119.214 33.7093 118.895 33.7093C118.595 33.7093 118.294 33.702 117.994 33.7118C117.796 33.7179 117.595 33.7314 117.4 33.7718C117.074 33.8392 116.725 34.0647 116.73 34.5512C116.735 35.0205 116.907 35.2557 117.38 35.3574C117.944 35.4788 118.517 35.3893 119.084 35.4101C119.167 35.4138 119.173 35.3513 119.173 35.2888C119.173 35.045 119.173 34.7999 119.173 34.5561L119.175 34.5548Z" fill="#058E94"/>
<path d="M163.954 25.3933C164.022 25.5698 163.847 25.6764 163.702 25.7928C162.842 26.4802 161.99 27.1762 161.12 27.8502C160.054 28.6761 158.98 29.4909 157.895 30.2947C156.82 31.0925 155.679 31.7958 154.474 32.3938C153.485 32.8839 152.467 33.3042 151.38 33.548C150.824 33.673 150.265 33.7515 149.694 33.7809C149.181 33.8066 148.68 33.7784 148.182 33.662C147.155 33.4218 146.384 32.8398 145.819 31.9857C145.411 31.3694 145.2 30.6844 145.096 29.9615C145.005 29.3304 145.001 28.6969 144.993 28.0622C144.991 27.898 145.045 27.8232 145.198 27.7607C146.081 27.4005 146.963 27.0378 147.838 26.6591C149.636 25.8798 151.395 25.0221 153.101 24.0626C154.453 23.3017 155.765 22.4782 157.006 21.5519C158.139 20.7064 159.198 19.7837 160.118 18.7164C160.375 18.4187 160.603 18.0964 160.847 17.7864C160.947 17.6589 160.951 17.6589 161.046 17.7913C161.872 18.937 162.535 20.1672 163.031 21.482C163.423 22.5162 163.687 23.5823 163.863 24.6704C163.9 24.8922 163.919 25.1152 163.953 25.3946L163.954 25.3933ZM160.634 25.5428C160.266 25.5049 159.788 25.8283 159.778 26.3369C159.768 26.838 160.204 27.1909 160.617 27.1824C161.076 27.1726 161.468 26.8135 161.464 26.3687C161.46 25.9068 161.075 25.5306 160.635 25.5428H160.634ZM163.106 25.1532C163.156 24.7709 162.803 24.331 162.296 24.3163C161.834 24.304 161.429 24.6875 161.433 25.1446C161.437 25.5821 161.798 25.9582 162.272 25.9619C162.755 25.9656 163.139 25.5624 163.106 25.1532Z" fill="#048E94"/>
<path d="M83.8176 29.0595C83.8176 29.3131 83.8139 29.568 83.8189 29.8216C83.8202 29.9221 83.78 29.9601 83.6784 29.9601C83.1375 29.9576 82.5967 29.9576 82.0559 29.9601C81.9341 29.9601 81.9053 29.9086 81.9053 29.8008C81.909 29.2825 81.909 28.7642 81.9053 28.2471C81.9053 28.1233 81.9417 28.0731 82.0759 28.0743C82.5967 28.0804 83.1174 28.0816 83.6382 28.0743C83.7925 28.0718 83.8227 28.1368 83.8189 28.2679C83.8114 28.5313 83.8164 28.796 83.8164 29.0595H83.8176Z" fill="white"/>
<path d="M85.8421 29.9599C85.5912 29.9599 85.3402 29.9562 85.0905 29.9611C84.975 29.9636 84.9324 29.9231 84.9336 29.808C84.9386 29.2896 84.9386 28.7713 84.9336 28.2518C84.9324 28.1047 85.0014 28.0729 85.1369 28.0753C85.6275 28.0802 86.1194 28.0802 86.6101 28.0753C86.7456 28.0741 86.8134 28.106 86.8121 28.253C86.8071 28.7713 86.8071 29.2896 86.8121 29.8092C86.8121 29.9244 86.7694 29.9648 86.654 29.9624C86.383 29.9575 86.1132 29.9611 85.8421 29.9611V29.9599Z" fill="white"/>
<path d="M124.696 14.7865C124.696 14.5133 124.698 14.2388 124.696 13.9656C124.696 13.8835 124.721 13.8418 124.814 13.8418C125.345 13.8442 125.876 13.843 126.407 13.8418C126.501 13.8418 126.556 13.8639 126.555 13.9717C126.552 14.5096 126.552 15.0475 126.555 15.5842C126.555 15.6823 126.517 15.7252 126.414 15.7252C125.883 15.7227 125.353 15.7215 124.822 15.7252C124.705 15.7252 124.695 15.6639 124.696 15.5769C124.699 15.3134 124.696 15.0488 124.696 14.7853V14.7865Z" fill="white"/>
<path d="M127.706 14.7653C127.706 14.5202 127.711 14.2764 127.704 14.0313C127.7 13.9027 127.72 13.8365 127.879 13.8389C128.39 13.8487 128.902 13.8438 129.413 13.8414C129.526 13.8414 129.571 13.8732 129.569 13.9921C129.564 14.5202 129.564 15.0484 129.569 15.5765C129.569 15.6929 129.522 15.7284 129.409 15.7272C128.888 15.7235 128.366 15.7235 127.845 15.7272C127.74 15.7272 127.705 15.6855 127.706 15.5875C127.71 15.3143 127.706 15.0398 127.706 14.7665V14.7653Z" fill="white"/>
<path d="M115.847 29.0114C115.847 28.7578 115.851 28.5041 115.846 28.2505C115.843 28.1365 115.862 28.0728 116.007 28.0753C116.516 28.0826 117.027 28.0814 117.537 28.0753C117.662 28.0753 117.717 28.1047 117.716 28.2382C117.709 28.7651 117.712 29.2933 117.716 29.8202C117.716 29.917 117.691 29.9623 117.583 29.9611C117.052 29.9574 116.522 29.9562 115.991 29.9623C115.858 29.9635 115.847 29.9035 115.848 29.8018C115.852 29.5383 115.85 29.2749 115.85 29.0114H115.847Z" fill="white"/>
<path d="M120.721 29.0269C120.721 29.2916 120.719 29.555 120.722 29.8197C120.724 29.9177 120.694 29.9606 120.587 29.9594C120.055 29.9557 119.524 29.9557 118.992 29.9594C118.885 29.9594 118.856 29.9165 118.856 29.8185C118.86 29.2903 118.861 28.761 118.856 28.2329C118.855 28.0956 118.918 28.0723 119.038 28.0736C119.54 28.0772 120.041 28.0809 120.543 28.0723C120.697 28.0699 120.729 28.1299 120.725 28.2623C120.717 28.5159 120.722 28.7708 120.722 29.0257L120.721 29.0269Z" fill="white"/>
<path d="M123.853 30.9056C123.853 31.3283 123.523 31.6445 123.091 31.6359C122.675 31.6273 122.342 31.3026 122.35 30.908C122.357 30.4841 122.682 30.1838 123.121 30.1826C123.529 30.1814 123.878 30.5037 123.853 30.9068V30.9056Z" fill="#058E94"/>
<path d="M123.853 28.8166C123.853 29.2344 123.545 29.5358 123.118 29.5371C122.69 29.5383 122.352 29.2332 122.349 28.8411C122.344 28.4183 122.669 28.0887 123.093 28.085C123.528 28.0801 123.853 28.3938 123.853 28.8166Z" fill="#058E94"/>
<path d="M106.652 39.4388C106.671 39.8187 106.34 40.1593 105.904 40.1471C105.445 40.1336 105.16 39.8469 105.153 39.4364C105.147 39.0136 105.476 38.7 105.91 38.7012C106.359 38.7024 106.655 38.9965 106.652 39.4388Z" fill="#058E94"/>
<path d="M104.201 38.709C104.629 38.7102 104.943 39.0116 104.955 39.4148C104.965 39.7665 104.721 40.1549 104.204 40.1549C103.761 40.1549 103.451 39.8547 103.448 39.4479C103.446 39.0239 103.769 38.7078 104.201 38.709Z" fill="#058E94"/>
</g>
<defs>
<clipPath id="clip0_6448_8278">
<rect width="43" height="46" fill="white" transform="translate(8 4)"/>
</clipPath>
<clipPath id="clip1_6448_8278">
<rect width="97" height="32" fill="white" transform="translate(67 11)"/>
</clipPath>
</defs>
</svg>
