<svg width="97" height="32" viewBox="0 0 97 32" fill="none" xmlns="http://www.w3.org/2000/svg">
<g clip-path="url(#clip0_6299_27650)">
<path d="M80.5527 6.02555C79.5701 6.02555 78.5863 6.02555 77.6038 6.02555C77.5386 6.02555 77.4733 6.01085 77.4081 6.00227C77.4532 5.95203 77.4934 5.89689 77.5436 5.85278C78.1559 5.30505 78.7645 4.75119 79.3844 4.21204C80.5088 3.23666 81.7008 2.34583 82.9745 1.56528C83.5329 1.22341 84.1164 0.920749 84.6874 0.598482C84.7175 0.581328 84.7375 0.547018 84.7614 0.521285C84.7325 0.513933 84.7037 0.504131 84.6748 0.498004C84.2846 0.417131 83.8943 0.337483 83.5053 0.25661C82.5817 0.0642302 81.6431 0.00908949 80.7045 0.000512043C79.9767 -0.0056147 79.2476 0.0433993 78.5223 0.138977C77.8585 0.227202 77.2035 0.346061 76.5548 0.506581C75.6739 0.724693 74.8193 1.02123 73.9874 1.37903C72.1252 2.18041 70.4864 3.3016 69.0433 4.69483C68.6179 5.10654 68.2289 5.55747 67.85 6.01085C66.698 7.39304 65.8297 8.93086 65.2111 10.6071C64.6865 12.0285 64.4004 13.4953 64.2762 14.9963C64.2662 15.1164 64.3013 15.1777 64.4381 15.1826C64.6778 15.1912 64.9162 15.2169 65.1558 15.2304C65.915 15.2708 66.6729 15.3296 67.4334 15.3419C68.7171 15.3627 70.0008 15.3541 71.2845 15.3554C71.494 15.3554 71.4903 15.3492 71.543 15.1569C71.6534 14.7537 71.755 14.3469 71.883 13.9487C72.6334 11.6131 73.9974 9.63298 75.63 7.80844C75.7241 7.70306 75.8245 7.66385 75.9662 7.66507C76.5886 7.6712 77.2098 7.66752 77.8322 7.66752C79.136 7.66752 80.4397 7.66752 81.7448 7.66752C81.7912 7.66752 81.8389 7.68223 81.8853 7.6908C81.8627 7.73247 81.8477 7.7778 81.8175 7.81334C81.4536 8.25446 81.0734 8.68456 80.7258 9.13672C79.9227 10.1795 79.264 11.3031 78.8549 12.5518C78.7068 13.0051 78.5951 13.4708 78.4734 13.9315C78.4546 14.0026 78.4709 14.0835 78.4697 14.1594C78.5424 14.1472 78.6202 14.1472 78.688 14.1214C79.8487 13.6668 80.9755 13.1461 82.0572 12.5309C83.1928 11.8852 84.2582 11.1438 85.2533 10.3057C86.2572 9.46021 87.2096 8.56938 88.0139 7.53518C88.6137 6.76322 89.1357 5.94346 89.526 5.05018C89.6829 4.69115 89.8071 4.32109 89.7807 3.91795C89.7481 3.42536 89.4607 3.14476 88.9601 3.14108C88.5284 3.13741 88.1369 3.2918 87.7554 3.45845C86.3475 4.07235 85.0839 4.90926 83.9018 5.86626C83.7688 5.97409 83.6446 6.0231 83.4727 6.02188C82.5002 6.01575 81.5264 6.0182 80.5539 6.0182L80.5527 6.02555ZM24.0311 15.4228C25.2747 15.4228 26.5195 15.4228 27.763 15.4228C27.8333 15.4228 27.9036 15.4191 27.9738 15.4228C28.0805 15.4301 28.1169 15.3737 28.1169 15.2818C28.1169 15.0858 28.1144 14.8897 28.1194 14.6949C28.1207 14.6312 28.142 14.5687 28.1545 14.5062C28.1934 14.5479 28.2361 14.5871 28.2712 14.6324C28.7506 15.2353 29.3905 15.5588 30.156 15.6556C30.7031 15.7254 31.249 15.7401 31.7998 15.6617C32.7824 15.522 33.5453 15.0833 33.9983 14.195C34.0297 14.1337 34.0648 14.0749 34.0924 14.0124C34.1326 13.9242 34.1715 13.9021 34.2304 14.0014C34.3057 14.1276 34.381 14.255 34.4664 14.3739C34.8215 14.8701 35.2406 15.299 35.8404 15.5073C36.6887 15.8014 37.5633 15.8565 38.4304 15.6372C39.3288 15.4093 40.0228 14.891 40.4331 14.0516C40.482 13.9511 40.5498 13.8604 40.6088 13.7649C40.669 13.8617 40.7317 13.9585 40.7895 14.0577C41.3102 14.9522 42.0606 15.4411 43.1511 15.4289C44.8965 15.4081 46.642 15.4252 48.3875 15.4203C48.656 15.4203 48.9283 15.4068 49.1931 15.3615C50.3049 15.1728 51.1933 14.6618 51.7216 13.6485C51.7366 13.6203 51.7592 13.597 51.7793 13.5713C51.7956 13.5958 51.8144 13.619 51.8257 13.646C51.9914 14.0283 52.231 14.3616 52.5234 14.6594C53.0003 15.1458 53.5687 15.4252 54.2727 15.424C55.9178 15.4203 57.5628 15.4289 59.2079 15.4166C59.5643 15.4142 59.927 15.375 60.2758 15.3002C61.0939 15.125 61.7402 14.6961 62.1543 13.9695C62.458 13.4365 62.5433 12.852 62.542 12.2528C62.542 11.7835 62.5182 11.3154 62.5144 10.8461C62.5081 9.85722 62.5094 8.86837 62.5044 7.87951C62.5031 7.51803 62.4931 7.15655 62.4881 6.79385C62.4881 6.69705 62.4743 6.61985 62.345 6.61985C61.8531 6.6223 61.3625 6.6223 60.8706 6.61985C60.7827 6.61985 60.7401 6.66029 60.7351 6.73993C60.73 6.80855 60.7326 6.87717 60.7351 6.94579C60.7464 7.48249 60.7614 8.02042 60.7689 8.55713C60.7802 9.42835 60.8016 10.2996 60.789 11.1696C60.7827 11.6364 60.8518 12.1008 60.784 12.5701C60.6698 13.3654 60.0524 13.8261 59.3359 13.8335C57.5804 13.8531 55.8249 13.8396 54.0694 13.8421C53.8234 13.8421 53.5988 13.7771 53.383 13.6693C52.871 13.4144 52.5247 13.0113 52.2812 12.5126C52.0478 12.0347 51.9951 11.52 51.9864 11.0054C51.9625 9.63543 51.9638 8.26549 51.955 6.89433C51.955 6.84531 51.9575 6.7963 51.955 6.74729C51.95 6.66764 51.9086 6.62352 51.8207 6.62352C51.3288 6.62352 50.8382 6.62352 50.3463 6.62352C50.2584 6.62352 50.2221 6.65906 50.2233 6.74729C50.2308 7.36364 50.2359 7.97999 50.2396 8.59634C50.2472 9.72121 50.2584 10.8473 50.2597 11.9722C50.2597 12.3765 50.2032 12.7748 49.9272 13.0995C49.5357 13.559 49.0174 13.8225 48.4151 13.8286C46.5492 13.8494 44.6832 13.8372 42.8185 13.8359C42.7194 13.8359 42.619 13.8225 42.5224 13.8028C41.6465 13.6166 40.8786 12.7172 40.792 11.7112C40.7368 11.0801 40.7368 10.4429 40.7292 9.80821C40.7179 8.81935 40.7217 7.83049 40.7179 6.84164C40.7179 6.63088 40.7129 6.62598 40.4996 6.62352C40.0679 6.61985 39.6375 6.62107 39.2059 6.62352C38.9863 6.62352 38.9863 6.62598 38.9825 6.85144C38.9825 6.89065 38.9825 6.92986 38.9825 6.96907C39.0013 8.02532 39.0277 9.08035 39.039 10.1366C39.049 10.998 39.0678 11.8607 39.0352 12.7209C39.0051 13.521 38.4655 13.983 37.7904 14.13C37.1454 14.2697 36.513 14.1717 35.9119 13.9401C35.218 13.673 34.7173 13.1938 34.5052 12.4795C34.4199 12.1927 34.3559 11.8901 34.3509 11.5923C34.3271 10.2616 34.3283 8.93086 34.3195 7.5989C34.3195 7.55969 34.3183 7.52048 34.3195 7.48127C34.3258 7.35873 34.2756 7.30972 34.1413 7.31217C33.7398 7.31952 33.3395 7.31462 32.938 7.31462C32.5992 7.31462 32.5954 7.31462 32.5992 7.63199C32.618 9.23474 32.6406 10.8387 32.6556 12.4415C32.6569 12.6253 32.6343 12.8103 32.6017 12.9917C32.4937 13.5945 32.0483 14.0148 31.4372 14.1337C30.8938 14.2391 30.3668 14.1656 29.8423 14.0295C28.9677 13.8028 28.4482 13.238 28.221 12.3986C28.1232 12.0359 28.1232 11.6634 28.1219 11.2933C28.1156 10.0888 28.1194 8.88552 28.1194 7.681C28.1194 7.61238 28.1169 7.54376 28.1194 7.47514C28.1244 7.34893 28.0654 7.3085 27.9374 7.31095C27.5359 7.3183 27.1356 7.3134 26.7341 7.3134C26.5107 7.3134 26.399 7.42082 26.399 7.63566C26.399 9.62318 26.4003 11.6107 26.4003 13.5982C26.4003 13.8151 26.4467 13.8421 26.1957 13.8421C24.1993 13.8408 22.2028 13.8384 20.2077 13.8421C19.8638 13.8421 19.5589 13.7416 19.2803 13.559C18.4973 13.0444 18.1359 12.2883 18.1008 11.3999C18.0493 10.1109 18.0531 8.81935 18.0343 7.52783C18.0305 7.30237 18.0343 7.0769 18.0318 6.85266C18.0293 6.62598 18.028 6.62353 17.8072 6.6223C17.3855 6.61985 16.9639 6.61985 16.5435 6.6223C16.3014 6.62353 16.2938 6.6272 16.2989 6.87227C16.3114 7.39917 16.3428 7.92607 16.3465 8.45297C16.3541 9.64769 16.3603 10.8412 16.344 12.0359C16.339 12.3925 16.285 12.7539 16.0429 13.0554C15.6476 13.5455 15.1168 13.8176 14.4957 13.8261C12.7401 13.8519 10.9846 13.8372 9.22911 13.8408C8.98316 13.8408 8.75604 13.7881 8.53895 13.6779C7.59782 13.1988 7.14232 12.428 7.13228 11.4061C7.11848 9.9479 7.11848 8.48973 7.1122 7.03157C7.1122 6.97275 7.11471 6.91393 7.1122 6.85512C7.10342 6.66519 7.09965 6.65906 6.9039 6.65784C6.49231 6.65538 6.08073 6.65784 5.6704 6.65784C5.32406 6.65784 5.35669 6.63088 5.3592 6.95069C5.36924 8.11477 5.38555 9.27886 5.39182 10.4429C5.39684 11.471 5.40563 12.4991 5.3868 13.5271C5.37927 13.9536 5.34038 14.3861 5.25379 14.804C4.98902 16.0734 4.37415 17.1554 3.33891 17.9886C2.67134 18.5266 1.91091 18.8721 1.05637 19.0069C0.751444 19.0547 0.440245 19.0669 0.131555 19.0878C0.0110912 19.0964 -0.0290635 19.1245 0.0324234 19.2458C0.241981 19.6649 0.442754 20.0877 0.651057 20.5067C0.683683 20.5729 0.718818 20.6268 0.830498 20.6182C1.60097 20.557 2.34007 20.3805 3.04779 20.0779C4.3089 19.5399 5.26759 18.6663 5.99289 17.5389C6.6178 16.5685 6.96162 15.5024 7.07958 14.3641C7.08962 14.2709 7.1235 14.179 7.14608 14.0871C7.20631 14.1582 7.26906 14.228 7.32552 14.3028C7.8651 15.0221 8.55526 15.4375 9.50517 15.4277C11.2306 15.4081 12.956 15.4215 14.6814 15.4228C15.2071 15.4228 15.7116 15.3137 16.1897 15.1103C16.8962 14.8089 17.4658 14.3506 17.8034 13.6521C17.8197 13.619 17.8561 13.5958 17.8837 13.5676C17.8975 13.6019 17.9113 13.6374 17.9264 13.6717C18.0757 14.005 18.2802 14.304 18.5274 14.5748C19.0482 15.1446 19.6869 15.4375 20.4837 15.4264C21.667 15.4093 22.8516 15.4215 24.0349 15.4215L24.0311 15.4228ZM71.1703 19.0486C71.1703 18.6969 71.1703 18.344 71.1703 17.9923C71.1703 17.8061 71.1565 17.7914 70.9657 17.7963C70.7963 17.7999 70.6269 17.8244 70.4575 17.822C69.7159 17.8159 68.9743 17.8085 68.2327 17.7926C67.6015 17.7791 66.9716 17.7607 66.3417 17.7325C65.7117 17.7031 65.0831 17.6602 64.4544 17.6198C64.3691 17.6149 64.3226 17.6198 64.3364 17.724C64.4619 18.6895 64.6401 19.6453 64.93 20.5778C65.7318 23.1559 67.1021 25.4057 69.0546 27.3111C70.3672 28.5928 71.8617 29.6246 73.5356 30.4149C75.4919 31.3388 77.5561 31.851 79.7182 31.9723C80.9592 32.0422 82.1953 31.9711 83.4262 31.7628C84.799 31.5312 86.1191 31.1477 87.384 30.5852C90.3881 29.2484 92.7748 27.2167 94.5378 24.4928C95.5429 22.9403 96.2456 21.2677 96.6497 19.4725C96.8091 18.7667 96.9069 18.0548 96.9898 17.3392C97.0073 17.1848 96.9998 17.0267 97.0011 16.8699C97.0011 16.8466 96.986 16.8233 96.9772 16.8001C96.9609 16.8099 96.9408 16.816 96.9283 16.8295C96.9007 16.8576 96.8743 16.8871 96.8492 16.9177C95.8052 18.1443 94.7072 19.3243 93.5791 20.4773C92.2013 21.8853 90.7733 23.2454 89.2675 24.5247C88.3075 25.3407 87.32 26.125 86.2446 26.7928C84.39 27.9458 82.4048 28.7497 80.1925 28.9543C79.2916 29.0376 78.3956 29.0425 77.5009 28.882C76.0654 28.6247 74.8507 27.9752 73.8493 26.9423C72.9471 26.011 72.3235 24.9192 71.8993 23.7147C71.366 22.2038 71.1715 20.6391 71.1715 19.0486H71.1703ZM59.9759 22.2136C59.9759 21.0679 59.9759 19.9235 59.9759 18.7778C59.9759 18.4383 60.0361 18.4322 59.612 18.4359C59.3108 18.4383 59.0097 18.4359 58.7098 18.4359C58.2794 18.4359 58.3145 18.3967 58.3145 18.8072C58.3145 21.0581 58.3145 23.3103 58.3145 25.5613C58.3145 25.6299 58.3095 25.6985 58.3145 25.7672C58.327 25.897 58.2668 25.935 58.1388 25.9326C57.79 25.9265 57.4411 25.9326 57.0923 25.9301C56.8639 25.9289 56.8601 25.9252 56.8589 25.6985C56.8564 25.092 56.8589 24.4842 56.8589 23.8777C56.8589 23.1241 56.8589 22.3705 56.8589 21.6169C56.8589 21.427 56.8539 21.4233 56.6606 21.4221C56.2591 21.4196 55.8588 21.4221 55.4572 21.4208C55.2113 21.4196 55.2276 21.4184 55.2276 21.6439C55.2276 22.77 55.2276 23.8948 55.2276 25.0209C55.2276 25.2758 55.2226 25.5307 55.2301 25.7843C55.2326 25.9007 55.1862 25.9375 55.072 25.9326C54.693 25.9167 54.3128 25.9056 53.9339 25.897C53.8347 25.8946 53.7858 25.8615 53.7908 25.7598C53.7946 25.6912 53.7908 25.6226 53.7908 25.5539C53.7908 24.2514 53.7908 22.9501 53.7908 21.6475C53.7908 21.4245 53.787 21.4221 53.5637 21.4208C52.5711 21.4208 51.5773 21.4172 50.5847 21.4233C50.3664 21.4245 50.143 21.4355 49.9309 21.4821C49.4453 21.5875 48.9923 21.7688 48.6861 22.1806C48.2294 22.792 48.1052 23.4672 48.2934 24.2024C48.4214 24.6999 48.6786 25.1006 49.1504 25.3456C49.5369 25.5454 49.9535 25.6397 50.389 25.6434C50.9411 25.6483 51.492 25.6434 52.0441 25.6458C52.0754 25.6458 52.1056 25.6704 52.1369 25.6838C52.1219 25.7083 52.1118 25.7365 52.0918 25.7561C51.9412 25.9007 51.7454 25.8946 51.556 25.8946C50.3325 25.8958 49.109 25.8946 47.8843 25.8946C47.6835 25.8946 47.484 25.8921 47.2832 25.8946C47.1967 25.8946 47.1527 25.8652 47.1552 25.777C47.1578 25.7083 47.1552 25.6397 47.1552 25.5711C47.1552 24.298 47.1552 23.0261 47.1552 21.7529C47.1552 21.6843 47.1527 21.6157 47.1552 21.5471C47.159 21.465 47.1301 21.4184 47.0373 21.4196C46.5755 21.4208 46.115 21.4221 45.6532 21.4196C45.5566 21.4196 45.534 21.4674 45.5365 21.5471C45.539 21.6157 45.5365 21.6843 45.5365 21.7529C45.5365 22.8692 45.539 23.9855 45.5352 25.1006C45.5352 25.3616 45.5127 25.6226 45.5001 25.8836C45.2203 25.8872 44.9392 25.8909 44.6594 25.8946C44.6493 25.8946 44.6393 25.8946 44.6293 25.8946C44.5389 25.9007 44.505 25.8554 44.5075 25.7721C44.51 25.7034 44.5075 25.6348 44.5075 25.5662C44.5075 24.2931 44.5075 23.0211 44.5075 21.748C44.5075 21.6794 44.505 21.6108 44.5075 21.5422C44.5113 21.4564 44.4724 21.4196 44.3833 21.4196C43.9215 21.4208 43.461 21.4184 42.9992 21.4245C42.9616 21.4245 42.9064 21.4833 42.8938 21.525C42.8763 21.5887 42.8888 21.661 42.8888 21.7296C42.8888 23.0126 42.8888 24.2943 42.8888 25.5772C42.8888 25.6458 42.9001 25.7169 42.8838 25.7819C42.8725 25.8247 42.8223 25.8885 42.7872 25.8897C42.496 25.8983 42.2049 25.8934 41.9151 25.8958C41.8197 25.8958 41.7971 25.8456 41.7984 25.7659C41.7996 25.6973 41.7984 25.6287 41.7984 25.5601C41.7984 24.385 41.7984 23.2111 41.7984 22.036C41.7984 21.8889 41.7896 21.7419 41.8009 21.5961C41.8134 21.4466 41.7457 21.4159 41.6076 21.4184C41.186 21.4257 40.7656 21.4184 40.344 21.4221C40.1495 21.4233 40.1445 21.4319 40.137 21.6218C40.1344 21.6806 40.137 21.7394 40.137 21.7983C40.137 23.0518 40.137 24.3041 40.137 25.5576C40.137 25.636 40.1482 25.7169 40.1307 25.7917C40.1206 25.8321 40.0617 25.8885 40.0215 25.8909C39.7128 25.9105 39.4041 25.924 39.0954 25.9289C38.906 25.9326 38.9022 25.924 38.9009 25.7279C38.8984 25.1802 38.9009 24.6313 38.9009 24.0835C38.9009 23.3005 38.8972 22.5175 38.9022 21.7345C38.9047 21.3473 38.8558 21.4245 38.5672 21.4221C38.256 21.4196 37.9448 21.4196 37.6348 21.4221C37.232 21.4245 37.2483 21.3596 37.2496 21.8007C37.2496 23.0934 37.2496 24.385 37.2496 25.6777C37.2496 25.9289 37.2471 25.9338 36.9873 25.9301C36.6084 25.924 36.2294 25.9093 35.8504 25.8958C35.7413 25.8921 35.6333 25.8836 35.5242 25.8774C35.5656 25.7745 35.6007 25.6691 35.6497 25.5699C35.9922 24.8739 36.1503 24.1521 35.9696 23.3839C35.6936 22.2051 34.775 21.4257 33.4474 21.4221C32.3444 21.4184 31.2402 21.4221 30.1372 21.4208C29.7908 21.4208 29.831 21.4686 29.8297 21.1304C29.8285 20.3376 29.8297 19.5448 29.8297 18.752C29.8297 18.4383 29.8699 18.48 29.5361 18.4788C29.1747 18.4763 28.8133 18.4776 28.4532 18.4788C28.1018 18.48 28.152 18.4481 28.152 18.7765C28.1508 20.9993 28.152 23.2209 28.152 25.4437C28.152 25.4927 28.157 25.5417 28.152 25.5907C28.137 25.7181 28.1909 25.761 28.3227 25.7586C28.7443 25.7525 29.1647 25.7561 29.5863 25.7561C29.8272 25.7561 29.8322 25.7892 29.8322 25.5196C29.831 24.717 29.831 23.9144 29.8322 23.1118C29.8322 22.7859 29.7908 22.8275 30.1133 22.8263C30.9754 22.8251 31.8387 22.8288 32.7008 22.8239C33.1287 22.8214 33.5014 22.966 33.844 23.2001C34.0209 23.3201 34.1589 23.4843 34.2154 23.6853C34.371 24.2404 34.3145 24.7722 33.9494 25.2415C33.5993 25.6912 33.1199 25.897 32.5439 25.897C31.1398 25.8958 29.7356 25.897 28.3315 25.897C28.1006 25.897 27.8697 25.9019 27.6388 25.8946C27.5208 25.8909 27.4794 25.9314 27.4819 26.0465C27.4882 26.321 27.4819 26.5943 27.4844 26.8687C27.4857 27.2131 27.4518 27.1653 27.7869 27.1653C30.7859 27.169 33.785 27.1714 36.784 27.1726C38.8206 27.1726 40.856 27.1677 42.8926 27.1665C43.9153 27.1665 44.9392 27.1653 45.9619 27.1665C46.2882 27.1665 46.6006 27.1236 46.8604 26.908C46.9181 26.8602 46.9557 26.8577 47.0047 26.9214C47.1653 27.131 47.4012 27.169 47.6471 27.1714C47.7877 27.1714 47.9282 27.1665 48.0688 27.1665C49.483 27.1665 50.8972 27.1665 52.3114 27.1665C52.6251 27.1665 52.9287 27.1138 53.2098 26.9754C53.2977 26.9325 53.3642 26.8136 53.4457 26.8087C53.5022 26.805 53.5612 26.9447 53.634 27.0011C53.7017 27.0538 53.7858 27.104 53.8699 27.1163C54.0757 27.1469 54.2852 27.1702 54.4935 27.1714C56.5602 27.1751 58.6257 27.1763 60.6924 27.1714C60.9208 27.1714 61.1542 27.1518 61.3763 27.1052C61.9322 26.9901 62.3563 26.7095 62.4981 26.1372C62.542 25.9595 62.5646 25.7708 62.5646 25.587C62.5684 23.3165 62.5671 21.0447 62.5671 18.7741C62.5671 18.7251 62.5621 18.6761 62.5671 18.627C62.5834 18.5057 62.522 18.4763 62.4103 18.4776C62.0589 18.4812 61.7076 18.4788 61.3575 18.4788C61.0847 18.4788 60.9484 18.6107 60.9484 18.8746C60.9484 20.9503 60.9509 23.0248 60.9446 25.1006C60.9446 25.2831 60.912 25.4706 60.858 25.6446C60.8304 25.7353 60.7363 25.8505 60.651 25.8725C60.4715 25.9203 60.2771 25.9203 60.0888 25.9252C60.0537 25.9252 59.996 25.8664 59.9834 25.8247C59.9659 25.761 59.9784 25.6887 59.9784 25.6201C59.9784 24.4842 59.9784 23.3495 59.9784 22.2136H59.9759ZM96.9534 14.3922C96.9195 14.1141 96.9007 13.8898 96.8643 13.6681C96.6873 12.5812 96.4226 11.5139 96.0323 10.4797C95.5354 9.1649 94.8728 7.93587 94.0472 6.78895C93.9518 6.65661 93.948 6.65661 93.8476 6.78405C93.6042 7.09406 93.3758 7.41633 93.1186 7.71409C92.1988 8.78137 91.1397 9.70405 90.0066 10.5495C88.7656 11.4759 87.4543 12.2993 86.1016 13.0603C84.3962 14.0197 82.637 14.8775 80.8388 15.6568C79.9642 16.0354 79.082 16.3981 78.1986 16.7584C78.0455 16.8209 77.9915 16.8956 77.9941 17.0598C78.0016 17.6946 78.0054 18.3281 78.097 18.9591C78.2011 19.6821 78.4119 20.367 78.8197 20.9834C79.3844 21.8375 80.1561 22.4207 81.1826 22.6597C81.6808 22.7761 82.1814 22.8055 82.6947 22.7785C83.2656 22.7491 83.8253 22.6707 84.3812 22.5457C85.4679 22.3019 86.4843 21.8816 87.4743 21.3914C88.6802 20.7935 89.8196 20.0901 90.8963 19.2924C91.9792 18.4886 93.0546 17.6737 94.1212 16.8478C94.9921 16.1739 95.8441 15.4779 96.7024 14.7905C96.8492 14.6741 97.0224 14.5675 96.9546 14.391L96.9534 14.3922ZM16.8171 18.0585C16.8171 17.795 16.8121 17.5304 16.8196 17.2669C16.8234 17.1358 16.7945 17.0709 16.6389 17.0733C16.1182 17.0807 15.5974 17.0794 15.0766 17.0733C14.9424 17.0721 14.9047 17.1235 14.906 17.2461C14.911 17.7644 14.9097 18.2827 14.906 18.7998C14.906 18.9077 14.9348 18.9603 15.0566 18.9591C15.5974 18.9554 16.1382 18.9567 16.6791 18.9591C16.7795 18.9591 16.8209 18.9211 16.8196 18.8207C16.8146 18.567 16.8184 18.3121 16.8184 18.0585H16.8171ZM18.8411 18.9591C19.1122 18.9591 19.382 18.9554 19.653 18.9603C19.7685 18.9628 19.8111 18.9224 19.8111 18.8072C19.8061 18.2889 19.8061 17.7705 19.8111 17.251C19.8124 17.1039 19.7434 17.0721 19.6091 17.0733C19.1185 17.0782 18.6266 17.0782 18.1359 17.0733C18.0017 17.0721 17.9314 17.1027 17.9326 17.2498C17.9377 17.7681 17.9377 18.2864 17.9326 18.8059C17.9326 18.9211 17.9741 18.9616 18.0895 18.9591C18.3405 18.9542 18.5902 18.9579 18.8411 18.9579V18.9591ZM57.6971 3.78684C57.6971 4.05029 57.6971 4.31497 57.6971 4.57842C57.6971 4.66542 57.7059 4.72791 57.8226 4.72668C58.3534 4.72301 58.8842 4.72423 59.415 4.72668C59.5191 4.72668 59.5568 4.6838 59.5555 4.58577C59.553 4.04784 59.553 3.50991 59.5555 2.97321C59.5555 2.86538 59.5003 2.84332 59.4075 2.84332C58.8767 2.84455 58.3459 2.84577 57.8151 2.84332C57.721 2.84332 57.6959 2.88376 57.6971 2.96708C57.6996 3.24034 57.6971 3.51481 57.6971 3.78807V3.78684ZM60.7087 3.76601C60.7087 4.04049 60.7112 4.31374 60.7087 4.58699C60.7087 4.68502 60.7439 4.72668 60.848 4.72668C61.3688 4.72423 61.8908 4.72301 62.4115 4.72668C62.5245 4.72668 62.5734 4.69237 62.5721 4.57597C62.5684 4.04784 62.5671 3.51972 62.5721 2.99159C62.5734 2.87273 62.527 2.84087 62.4153 2.84087C61.9046 2.84455 61.3926 2.84822 60.8819 2.83842C60.7225 2.83597 60.7024 2.90214 60.7062 3.0308C60.7137 3.27465 60.7087 3.51972 60.7087 3.76479V3.76601ZM48.8493 18.0119C48.8493 18.2754 48.8518 18.5388 48.848 18.8023C48.8468 18.904 48.8581 18.964 48.9911 18.9628C49.5206 18.9554 50.0514 18.9579 50.5822 18.9616C50.6901 18.9616 50.7165 18.9162 50.7152 18.8207C50.7114 18.2938 50.7102 17.7656 50.7152 17.2387C50.7165 17.1052 50.6613 17.0745 50.537 17.0758C50.0263 17.0807 49.5168 17.0831 49.0061 17.0758C48.8618 17.0733 48.8442 17.137 48.8455 17.251C48.8505 17.5046 48.8468 17.7583 48.8468 18.0119H48.8493ZM53.723 18.0291C53.723 17.7742 53.7168 17.5193 53.7256 17.2657C53.7293 17.1321 53.698 17.0721 53.5436 17.0758C53.0429 17.0843 52.541 17.0819 52.0391 17.077C51.9186 17.077 51.8559 17.099 51.8571 17.2363C51.8634 17.7644 51.8609 18.2938 51.8571 18.8219C51.8571 18.9199 51.8847 18.9628 51.9926 18.9628C52.5247 18.9591 53.0555 18.9591 53.5875 18.9628C53.6942 18.9628 53.7243 18.9199 53.723 18.8231C53.718 18.5584 53.7218 18.295 53.7218 18.0303L53.723 18.0291ZM56.8551 19.9075C56.8802 19.5044 56.5314 19.1821 56.1235 19.1834C55.6844 19.1846 55.3594 19.4848 55.3518 19.9088C55.3443 20.3033 55.6768 20.628 56.0934 20.6366C56.5251 20.6452 56.8551 20.3291 56.8551 19.9063V19.9075ZM56.8551 17.8183C56.8551 17.3956 56.5314 17.0831 56.0947 17.0868C55.6706 17.0917 55.3456 17.4201 55.3506 17.8428C55.3543 18.2349 55.6931 18.54 56.1198 18.5388C56.5464 18.5376 56.8539 18.2362 56.8551 17.8183ZM39.6526 28.4409C39.6551 27.9985 39.3602 27.7044 38.911 27.7032C38.4768 27.7032 38.148 28.0157 38.1543 28.4384C38.1606 28.8489 38.4467 29.1356 38.9047 29.1491C39.3414 29.1614 39.6714 28.8207 39.6526 28.4409ZM37.2031 27.7106C36.7715 27.7093 36.4477 28.0255 36.4502 28.4494C36.4528 28.8563 36.7627 29.1577 37.2057 29.1565C37.7226 29.1565 37.9673 28.768 37.9573 28.4164C37.9448 28.0132 37.6323 27.7118 37.2031 27.7106Z" fill="#005243"/>
<path d="M80.5528 6.02426C81.5253 6.02426 82.499 6.02058 83.4715 6.02793C83.6422 6.02793 83.7676 5.98014 83.9007 5.87231C85.084 4.91532 86.3476 4.0784 87.7543 3.4645C88.1357 3.29786 88.5272 3.14346 88.9589 3.14714C89.4608 3.15081 89.7482 3.43142 89.7796 3.92401C89.8059 4.32837 89.6817 4.6972 89.5248 5.05623C89.1333 5.94829 88.6126 6.76927 88.0128 7.54124C87.2097 8.57421 86.256 9.46626 85.2521 10.3118C84.2558 11.1511 83.1917 11.8912 82.056 12.537C80.9756 13.1521 79.8475 13.6729 78.6868 14.1275C78.6203 14.1532 78.5425 14.1532 78.4685 14.1655C78.4685 14.0895 78.4534 14.0086 78.4722 13.9376C78.594 13.4756 78.7044 13.0112 78.8537 12.5578C79.2628 11.3092 79.9216 10.1868 80.7247 9.14277C81.0735 8.69062 81.4525 8.26052 81.8164 7.81939C81.8452 7.78386 81.8615 7.7373 81.8841 7.69686C81.8377 7.68828 81.79 7.67358 81.7436 7.67358C80.4398 7.67235 79.136 7.67358 77.831 7.67358C77.2086 7.67358 76.5875 7.67725 75.9651 7.67113C75.8233 7.6699 75.7229 7.70911 75.6288 7.81449C73.9962 9.63781 72.6322 11.618 71.8818 13.9547C71.7539 14.353 71.6522 14.7598 71.5418 15.1629C71.4891 15.3553 71.4928 15.3614 71.2833 15.3614C69.9996 15.3602 68.7159 15.3688 67.4322 15.3479C66.673 15.3357 65.9138 15.2769 65.1547 15.2364C64.915 15.2242 64.6766 15.1972 64.4369 15.1886C64.3001 15.1837 64.265 15.1213 64.275 15.0024C64.3993 13.5013 64.6854 12.0346 65.2099 10.6132C65.8285 8.93691 66.6969 7.39787 67.8488 6.01691C68.2278 5.5623 68.6155 5.11137 69.0422 4.70088C70.484 3.30766 72.1228 2.18646 73.9862 1.38508C74.8194 1.02606 75.6727 0.730748 76.5536 0.512636C77.2011 0.352115 77.8574 0.232031 78.5212 0.145031C79.2465 0.0494538 79.9755 -0.000785578 80.7033 0.00656652C81.642 0.015144 82.5806 0.0702847 83.5041 0.262665C83.8944 0.343538 84.2846 0.423185 84.6736 0.504058C84.7025 0.510185 84.7314 0.518763 84.7602 0.52734C84.7351 0.553072 84.7163 0.587382 84.6862 0.604537C84.1152 0.926804 83.5317 1.22947 82.9733 1.57134C81.6984 2.35189 80.5063 3.24149 79.3832 4.21809C78.7621 4.75725 78.1548 5.3111 77.5424 5.85884C77.4922 5.90417 77.4521 5.95809 77.4069 6.00833C77.4721 6.01691 77.5374 6.03161 77.6026 6.03161C78.5852 6.03284 79.569 6.03161 80.5515 6.03161L80.5528 6.02426Z" fill="#048E94"/>
<path d="M24.0304 15.4228C22.8471 15.4228 21.6626 15.4093 20.4793 15.4277C19.6824 15.4399 19.0425 15.1458 18.523 14.5761C18.2758 14.3053 18.07 14.0063 17.9219 13.673C17.9069 13.6387 17.893 13.6031 17.8792 13.5688C17.8516 13.597 17.8152 13.6203 17.7989 13.6534C17.4614 14.3518 16.8917 14.8089 16.1852 15.1115C15.7084 15.3149 15.2039 15.4252 14.6769 15.424C12.9515 15.4216 11.2261 15.4093 9.50071 15.4289C8.5508 15.4399 7.8619 15.0233 7.32106 14.304C7.26459 14.2293 7.20185 14.1607 7.14162 14.0884C7.11903 14.1803 7.0839 14.2722 7.07511 14.3653C6.95716 15.5037 6.61208 16.5697 5.98843 17.5402C5.26313 18.6675 4.30444 19.5412 3.04333 20.0791C2.3356 20.3818 1.5965 20.5582 0.826036 20.6195C0.714356 20.6281 0.67922 20.5741 0.646595 20.508C0.438292 20.0889 0.237519 19.6662 0.0279611 19.2471C-0.0322709 19.1258 0.00662894 19.0976 0.127093 19.089C0.435782 19.0682 0.746982 19.0559 1.05191 19.0082C1.90645 18.8734 2.66813 18.5278 3.33445 17.9899C4.36969 17.1566 4.98456 16.0747 5.24933 14.8052C5.33591 14.3874 5.37481 13.9548 5.38234 13.5284C5.40116 12.5003 5.39238 11.4723 5.38736 10.4442C5.38109 9.2801 5.36477 8.11602 5.35474 6.95194C5.35223 6.63212 5.3196 6.65908 5.66594 6.65908C6.07752 6.65908 6.48911 6.65663 6.89944 6.65908C7.09519 6.66031 7.09896 6.66643 7.10774 6.85636C7.11025 6.91518 7.10774 6.97399 7.10774 7.03281C7.11401 8.49098 7.11276 9.94914 7.12782 11.4073C7.13786 12.4305 7.59462 13.2 8.53449 13.6791C8.75157 13.7894 8.9787 13.8433 9.22465 13.8421C10.9802 13.8384 12.7357 13.8531 14.4912 13.8274C15.1123 13.8188 15.6431 13.5468 16.0384 13.0566C16.2806 12.7552 16.3345 12.3937 16.3396 12.0371C16.3546 10.8436 16.3496 9.64893 16.3421 8.45422C16.3383 7.92732 16.3069 7.40042 16.2944 6.87352C16.2894 6.62845 16.2969 6.626 16.5391 6.62354C16.9607 6.62109 17.3823 6.62109 17.8027 6.62354C18.0248 6.62354 18.0261 6.62722 18.0273 6.85391C18.0298 7.07937 18.0273 7.30484 18.0298 7.52908C18.0486 8.81937 18.0449 10.1109 18.0963 11.4012C18.1315 12.2896 18.4929 13.0444 19.2759 13.5602C19.5544 13.7441 19.8594 13.8445 20.2032 13.8433C22.1996 13.8396 24.1961 13.8409 26.1913 13.8433C26.4422 13.8433 26.3958 13.8163 26.3958 13.5995C26.3958 11.6119 26.3958 9.62443 26.3946 7.63691C26.3946 7.42288 26.5062 7.31546 26.7296 7.31464C27.1311 7.31464 27.5327 7.31954 27.933 7.31219C28.061 7.30974 28.1212 7.35018 28.1149 7.47639C28.1124 7.54501 28.1149 7.61363 28.1149 7.68225C28.1149 8.88676 28.1112 10.0901 28.1174 11.2946C28.1187 11.6646 28.1187 12.0371 28.2166 12.3998C28.4437 13.2392 28.9632 13.8041 29.8378 14.0308C30.3623 14.1668 30.8894 14.2403 31.4327 14.1349C32.0438 14.0161 32.4893 13.5958 32.5972 12.9929C32.6298 12.8116 32.6537 12.6253 32.6512 12.4427C32.6361 10.8387 32.6135 9.23599 32.5947 7.63323C32.5909 7.31587 32.5947 7.31587 32.9335 7.31587C33.335 7.31587 33.7366 7.32077 34.1369 7.31342C34.2699 7.31097 34.3201 7.35998 34.3151 7.48251C34.3138 7.52173 34.3151 7.56094 34.3151 7.60015C34.3226 8.93088 34.3226 10.2628 34.3464 11.5936C34.3515 11.8901 34.4155 12.194 34.5008 12.4807C34.7129 13.1939 35.2135 13.6742 35.9075 13.9413C36.5085 14.1729 37.1397 14.271 37.7859 14.1313C38.461 13.9842 39.0006 13.5223 39.0307 12.7221C39.0634 11.8619 39.0445 10.9993 39.0345 10.1378C39.0232 9.0816 38.9969 8.02657 38.978 6.97032C38.978 6.93111 38.978 6.8919 38.978 6.85268C38.9805 6.62845 38.9805 6.626 39.2014 6.62477C39.6331 6.62354 40.0647 6.62232 40.4951 6.62477C40.7072 6.626 40.7122 6.6309 40.7135 6.84288C40.7185 7.83174 40.7135 8.8206 40.7248 9.80945C40.7323 10.4442 40.7336 11.0801 40.7875 11.7124C40.8754 12.7184 41.6421 13.6178 42.5179 13.8041C42.6146 13.8249 42.7149 13.8372 42.8141 13.8372C44.68 13.8384 46.546 13.8507 48.4106 13.8298C49.013 13.8237 49.5312 13.559 49.9227 13.1007C50.2 12.776 50.2565 12.3778 50.2552 11.9734C50.254 10.8485 50.2427 9.72245 50.2352 8.59758C50.2314 7.98123 50.2264 7.36488 50.2189 6.74853C50.2189 6.66031 50.254 6.62477 50.3418 6.62477C50.8337 6.62477 51.3244 6.62477 51.8163 6.62477C51.9041 6.62477 51.9443 6.66766 51.9505 6.74853C51.9543 6.79754 51.9505 6.84656 51.9505 6.89557C51.9593 8.26551 51.9581 9.63668 51.9819 11.0066C51.9907 11.52 52.0434 12.0359 52.2768 12.5138C52.5202 13.0125 52.8666 13.4157 53.3785 13.6705C53.5944 13.7784 53.819 13.8433 54.0649 13.8433C55.8204 13.8409 57.576 13.8543 59.3315 13.8347C60.048 13.8261 60.6654 13.3666 60.7795 12.5714C60.8473 12.1021 60.7783 11.6377 60.7846 11.1708C60.7971 10.3008 60.7758 9.42959 60.7645 8.55837C60.757 8.02167 60.7419 7.48374 60.7306 6.94704C60.7294 6.87842 60.7268 6.8098 60.7306 6.74118C60.7356 6.66153 60.7783 6.62109 60.8661 6.62109C61.358 6.62354 61.8487 6.62354 62.3406 6.62109C62.4698 6.62109 62.4824 6.69829 62.4836 6.79509C62.4886 7.15657 62.4987 7.51805 62.4999 7.88075C62.5049 8.86961 62.5037 9.85847 62.51 10.8473C62.5137 11.3166 62.5363 11.7847 62.5376 12.254C62.5388 12.8532 62.4547 13.4377 62.1498 13.9707C61.7357 14.6974 61.0895 15.1262 60.2713 15.3015C59.9237 15.3762 59.5598 15.4154 59.2035 15.4179C57.5584 15.4301 55.9133 15.4216 54.2682 15.4252C53.5642 15.4265 52.9958 15.1471 52.519 14.6606C52.2266 14.3629 51.9869 14.0283 51.8213 13.6472C51.81 13.6203 51.7899 13.597 51.7748 13.5725C51.756 13.5982 51.7322 13.6215 51.7171 13.6497C51.1888 14.6631 50.3004 15.174 49.1886 15.3627C48.9251 15.4081 48.6516 15.4203 48.383 15.4216C46.6376 15.4265 44.8921 15.4081 43.1466 15.4301C42.0561 15.4436 41.3058 14.9547 40.785 14.059C40.7273 13.9597 40.6645 13.8641 40.6043 13.7661C40.5453 13.8617 40.4776 13.9524 40.4286 14.0528C40.0183 14.8922 39.3244 15.4105 38.4259 15.6384C37.5601 15.8578 36.6842 15.8026 35.8359 15.5086C35.2361 15.3002 34.8158 14.8714 34.4619 14.3751C34.3766 14.255 34.3013 14.1288 34.226 14.0026C34.167 13.9046 34.1294 13.9266 34.0879 14.0136C34.0591 14.0761 34.024 14.1349 33.9938 14.1962C33.5408 15.0846 32.7779 15.5233 31.7954 15.6629C31.2445 15.7414 30.6986 15.7267 30.1515 15.6568C29.3861 15.5588 28.7461 15.2365 28.2668 14.6337C28.2316 14.5895 28.189 14.5491 28.1501 14.5074C28.1375 14.5699 28.1174 14.6337 28.1149 14.6961C28.1099 14.8922 28.1137 15.0883 28.1124 15.2831C28.1124 15.375 28.076 15.4314 27.9694 15.424C27.8991 15.4191 27.8288 15.424 27.7586 15.424C26.515 15.424 25.2702 15.424 24.0267 15.424L24.0304 15.4228Z" fill="white"/>
<path d="M71.1695 19.0493C71.1695 20.6398 71.3653 22.2033 71.8973 23.7154C72.3227 24.9199 72.9451 26.013 73.8473 26.943C74.8487 27.976 76.0634 28.6254 77.4989 28.8827C78.3936 29.0432 79.2896 29.0383 80.1905 28.955C82.4016 28.7504 84.3879 27.9466 86.2426 26.7935C87.3192 26.1245 88.3055 25.3415 89.2655 24.5254C90.7713 23.2461 92.198 21.886 93.5771 20.4781C94.7052 19.325 95.8032 18.145 96.8472 16.9184C96.8723 16.8878 96.8987 16.8584 96.9263 16.8302C96.9388 16.8179 96.9589 16.8106 96.9752 16.8008C96.984 16.8241 96.999 16.8473 96.999 16.8706C96.9978 17.0275 97.0053 17.1855 96.9877 17.3399C96.9037 18.0555 96.8058 18.7687 96.6477 19.4733C96.2436 21.2684 95.5397 22.941 94.5358 24.4935C92.7728 27.2187 90.3861 29.2491 87.382 30.586C86.1171 31.1484 84.797 31.5319 83.4242 31.7635C82.1932 31.9706 80.9572 32.0417 79.7162 31.9731C77.5541 31.8517 75.4899 31.3396 73.5336 30.4156C71.8597 29.6253 70.3652 28.5935 69.0526 27.3118C67.1013 25.4052 65.7311 23.1554 64.928 20.5785C64.6381 19.646 64.4599 18.6903 64.3344 17.7247C64.3206 17.6205 64.3671 17.6144 64.4524 17.6205C65.0811 17.661 65.7097 17.7039 66.3397 17.7333C66.9696 17.7627 67.6008 17.7811 68.2307 17.7933C68.9723 17.8092 69.7139 17.8166 70.4555 17.8227C70.6249 17.8239 70.7943 17.8007 70.9637 17.797C71.1545 17.7921 71.1683 17.8068 71.1683 17.993C71.1683 18.3447 71.1683 18.6976 71.1683 19.0493H71.1695Z" fill="white"/>
<path d="M59.977 22.2143C59.977 23.3502 59.977 24.4849 59.977 25.6208C59.977 25.6894 59.9645 25.7617 59.9821 25.8254C59.9934 25.8671 60.0511 25.9271 60.0875 25.9259C60.2757 25.921 60.4702 25.921 60.6496 25.8732C60.7362 25.8499 60.8291 25.736 60.8567 25.6453C60.9106 25.4713 60.942 25.2838 60.9433 25.1012C60.9483 23.0255 60.947 20.951 60.947 18.8752C60.947 18.6114 61.0834 18.4794 61.3561 18.4794C61.7075 18.4794 62.0588 18.4819 62.4089 18.4782C62.5206 18.477 62.5821 18.5064 62.5658 18.6277C62.5595 18.6755 62.5658 18.7257 62.5658 18.7748C62.5658 21.0453 62.567 23.3171 62.5633 25.5877C62.5633 25.7715 62.5419 25.959 62.4967 26.1379C62.3537 26.7101 61.9296 26.9907 61.3749 27.1059C61.1516 27.1525 60.9194 27.1721 60.691 27.1721C58.6243 27.177 56.5589 27.177 54.4922 27.1721C54.2839 27.1721 54.0743 27.1488 53.8685 27.1169C53.7857 27.1047 53.7004 27.0544 53.6326 27.0017C53.5598 26.9454 53.5008 26.8045 53.4444 26.8094C53.3628 26.8155 53.295 26.9331 53.2085 26.976C52.9274 27.1145 52.6237 27.1672 52.31 27.1672C50.8958 27.1672 49.4816 27.1672 48.0674 27.1672C47.9269 27.1672 47.7863 27.1733 47.6458 27.1721C47.3986 27.1696 47.1639 27.1316 47.0033 26.9221C46.9544 26.8596 46.9167 26.8608 46.859 26.9086C46.5992 27.1243 46.288 27.1672 45.9605 27.1672C44.9378 27.1647 43.9139 27.1659 42.8912 27.1672C40.8546 27.1684 38.8193 27.1733 36.7827 27.1733C33.7836 27.1733 30.7846 27.1696 27.7855 27.1659C27.4492 27.1659 27.4843 27.2137 27.4831 26.8694C27.4818 26.5949 27.4868 26.3217 27.4806 26.0472C27.4781 25.9332 27.5195 25.8916 27.6374 25.8953C27.8683 25.9026 28.0992 25.8977 28.3301 25.8977C29.7343 25.8977 31.1384 25.8977 32.5426 25.8977C33.1198 25.8977 33.5979 25.6931 33.948 25.2421C34.3132 24.7728 34.3696 24.241 34.214 23.686C34.1576 23.485 34.0195 23.3208 33.8426 23.2007C33.5 22.9667 33.1273 22.8221 32.6994 22.8245C31.8374 22.8294 30.974 22.8245 30.112 22.827C29.7907 22.827 29.8321 22.7865 29.8309 23.1125C29.8296 23.9151 29.8296 24.7177 29.8309 25.5203C29.8309 25.7887 29.8259 25.7568 29.5849 25.7568C29.1633 25.7568 28.7417 25.7531 28.3213 25.7592C28.1896 25.7617 28.1356 25.7188 28.1507 25.5914C28.1557 25.5436 28.1507 25.4933 28.1507 25.4443C28.1507 23.2215 28.1507 21 28.1507 18.7772C28.1507 18.4488 28.1005 18.4807 28.4518 18.4794C28.8132 18.4782 29.1746 18.4782 29.5347 18.4794C29.8685 18.4819 29.8271 18.4402 29.8284 18.7527C29.8296 19.5455 29.8284 20.3383 29.8284 21.1311C29.8284 21.4693 29.7895 21.4215 30.1358 21.4215C31.2388 21.424 32.3431 21.4203 33.4461 21.4227C34.7724 21.4264 35.6922 22.2057 35.9683 23.3845C36.1477 24.1528 35.9909 24.8745 35.6483 25.5705C35.5994 25.6698 35.5642 25.7764 35.5228 25.8781C35.632 25.8842 35.7399 25.8928 35.8491 25.8965C36.228 25.9087 36.607 25.9234 36.9859 25.9308C37.2457 25.9357 37.2482 25.9308 37.2482 25.6784C37.2482 24.3856 37.2482 23.0941 37.2482 21.8014C37.2482 21.3602 37.2306 21.4252 37.6334 21.4227C37.9446 21.4203 38.2558 21.4203 38.5658 21.4227C38.8544 21.4252 38.9021 21.348 38.9008 21.7352C38.8958 22.5182 38.8996 23.3012 38.8996 24.0842C38.8996 24.6319 38.8983 25.1809 38.8996 25.7286C38.8996 25.9247 38.9046 25.932 39.0941 25.9296C39.4028 25.9247 39.7127 25.9112 40.0201 25.8916C40.0603 25.8891 40.1193 25.8328 40.1293 25.7923C40.1481 25.7176 40.1356 25.6367 40.1356 25.5583C40.1356 24.3048 40.1356 23.0524 40.1356 21.7989C40.1356 21.7401 40.1331 21.6813 40.1356 21.6225C40.1431 21.4325 40.1481 21.424 40.3426 21.4227C40.7643 21.4191 41.1859 21.4264 41.6063 21.4191C41.7443 21.4166 41.8108 21.4472 41.7995 21.5967C41.7882 21.7425 41.797 21.8908 41.797 22.0366C41.797 23.2117 41.797 24.3856 41.797 25.5607C41.797 25.6294 41.7982 25.698 41.797 25.7666C41.7957 25.845 41.8183 25.8965 41.9137 25.8965C42.2048 25.894 42.4959 25.8989 42.7858 25.8904C42.8209 25.8904 42.8711 25.8254 42.8824 25.7825C42.8987 25.7176 42.8874 25.6465 42.8874 25.5779C42.8874 24.295 42.8874 23.0132 42.8874 21.7303C42.8874 21.6617 42.8749 21.5894 42.8925 21.5257C42.9038 21.484 42.9602 21.4264 42.9979 21.4252C43.4596 21.4178 43.9202 21.4215 44.3819 21.4203C44.471 21.4203 44.5099 21.457 44.5062 21.5428C44.5037 21.6114 44.5062 21.6801 44.5062 21.7487C44.5062 23.0218 44.5062 24.2937 44.5062 25.5669C44.5062 25.6355 44.5087 25.7041 44.5062 25.7727C44.5037 25.856 44.5375 25.9014 44.6279 25.8953C44.6379 25.8953 44.648 25.8953 44.658 25.8953C44.9378 25.8916 45.2189 25.8879 45.4988 25.8842C45.5113 25.6232 45.5326 25.3622 45.5339 25.1012C45.5376 23.9849 45.5351 22.8686 45.5351 21.7536C45.5351 21.685 45.5377 21.6163 45.5351 21.5477C45.5326 21.4668 45.5552 21.4191 45.6518 21.4203C46.1136 21.4227 46.5741 21.4227 47.0359 21.4203C47.1288 21.4203 47.1576 21.4656 47.1539 21.5477C47.1514 21.6163 47.1539 21.685 47.1539 21.7536C47.1539 23.0267 47.1539 24.2986 47.1539 25.5718C47.1539 25.6404 47.1564 25.709 47.1539 25.7776C47.1514 25.8658 47.1953 25.8965 47.2819 25.8953C47.4826 25.8928 47.6822 25.8953 47.8829 25.8953C49.1064 25.8953 50.3299 25.8953 51.5546 25.8953C51.7441 25.8953 51.9398 25.9014 52.0904 25.7568C52.1105 25.7372 52.1205 25.709 52.1356 25.6845C52.1042 25.671 52.0741 25.6465 52.0427 25.6465C51.4906 25.6441 50.9397 25.649 50.3876 25.6441C49.9522 25.6404 49.5343 25.546 49.1491 25.3463C48.676 25.1012 48.4188 24.7005 48.292 24.203C48.1038 23.4678 48.228 22.7927 48.6848 22.1812C48.991 21.7707 49.444 21.5882 49.9296 21.4828C50.1416 21.4362 50.365 21.4252 50.5833 21.424C51.5759 21.4178 52.5697 21.4203 53.5623 21.4215C53.7857 21.4215 53.7894 21.4252 53.7894 21.6482C53.7894 22.9507 53.7894 24.2521 53.7894 25.5546C53.7894 25.6232 53.7932 25.6918 53.7894 25.7605C53.7832 25.8622 53.8321 25.8953 53.9325 25.8977C54.3115 25.9063 54.6917 25.9173 55.0706 25.9332C55.1848 25.9381 55.2325 25.9026 55.2287 25.785C55.2225 25.5301 55.2262 25.2765 55.2262 25.0216C55.2262 23.8955 55.2262 22.7706 55.2262 21.6445C55.2262 21.4191 55.2099 21.4203 55.4559 21.4215C55.8574 21.424 56.2577 21.4215 56.6593 21.4227C56.8525 21.4227 56.8575 21.4276 56.8575 21.6176C56.86 22.3712 56.8575 23.1247 56.8575 23.8783C56.8575 24.4849 56.8563 25.0927 56.8575 25.6992C56.8575 25.9259 56.8625 25.9283 57.0909 25.9308C57.4398 25.9332 57.7886 25.9271 58.1374 25.9332C58.2654 25.9357 58.3244 25.8977 58.3131 25.7678C58.3069 25.7004 58.3131 25.6306 58.3131 25.562C58.3131 23.311 58.3131 21.0588 58.3131 18.8078C58.3131 18.3973 58.278 18.4366 58.7084 18.4366C59.0096 18.4366 59.3107 18.4378 59.6106 18.4366C60.0335 18.4329 59.9733 18.439 59.9745 18.7784C59.9745 19.9241 59.9745 21.0686 59.9745 22.2143H59.977ZM52.1757 23.5548C52.1757 23.36 52.1757 23.164 52.1757 22.9691C52.1745 22.6934 52.2146 22.7093 51.8959 22.7093C51.596 22.7093 51.2948 22.702 50.9949 22.7118C50.7967 22.7179 50.5959 22.7314 50.4014 22.7718C50.0751 22.8392 49.7263 23.0647 49.7313 23.5512C49.7363 24.0205 49.9082 24.2557 50.3813 24.3574C50.9447 24.4788 51.5182 24.3893 52.0854 24.4101C52.1682 24.4138 52.1745 24.3513 52.1745 24.2888C52.1745 24.045 52.1745 23.7999 52.1745 23.5561L52.1757 23.5548Z" fill="#058E94"/>
<path d="M96.9528 14.3933C97.0206 14.5698 96.8462 14.6764 96.7006 14.7928C95.841 15.4802 94.989 16.1762 94.1194 16.8502C93.0528 17.6761 91.9787 18.4909 90.8945 19.2947C89.8191 20.0925 88.6785 20.7958 87.4726 21.3938C86.4837 21.8839 85.4661 22.3042 84.3794 22.548C83.8235 22.673 83.2638 22.7515 82.6929 22.7809C82.1797 22.8066 81.679 22.7784 81.1808 22.662C80.1544 22.4218 79.3826 21.8398 78.818 20.9857C78.4101 20.3694 78.1993 19.6844 78.0952 18.9615C78.0036 18.3304 77.9998 17.6969 77.9923 17.0622C77.9898 16.898 78.0437 16.8232 78.1968 16.7607C79.0802 16.4005 79.9624 16.0378 80.837 15.6591C82.6352 14.8798 84.3944 14.0221 86.0998 13.0626C87.4525 12.3017 88.7638 11.4782 90.0048 10.5519C91.1379 9.70639 92.197 8.7837 93.1168 7.71642C93.374 7.41866 93.6024 7.09639 93.8459 6.78638C93.9462 6.65894 93.95 6.65894 94.0454 6.79128C94.8711 7.93698 95.5336 9.16723 96.0305 10.482C96.422 11.5162 96.6855 12.5823 96.8625 13.6704C96.8989 13.8922 96.9177 14.1152 96.9516 14.3946L96.9528 14.3933ZM93.6325 14.5428C93.2649 14.5049 92.7868 14.8283 92.7767 15.3369C92.7667 15.838 93.2034 16.1909 93.6162 16.1824C94.0755 16.1726 94.467 15.8135 94.4632 15.3687C94.4595 14.9068 94.0742 14.5306 93.6338 14.5428H93.6325ZM96.1046 14.1532C96.1548 13.7709 95.8021 13.331 95.2952 13.3163C94.8334 13.304 94.4281 13.6875 94.4319 14.1446C94.4356 14.5821 94.797 14.9582 95.2713 14.9619C95.7545 14.9656 96.1384 14.5624 96.1046 14.1532Z" fill="#048E94"/>
<path d="M16.8186 18.0595C16.8186 18.3131 16.8149 18.568 16.8199 18.8216C16.8211 18.9221 16.781 18.9601 16.6793 18.9601C16.1385 18.9576 15.5977 18.9576 15.0568 18.9601C14.9351 18.9601 14.9062 18.9086 14.9062 18.8008C14.91 18.2825 14.91 17.7642 14.9062 17.2471C14.9062 17.1233 14.9426 17.0731 15.0769 17.0743C15.5977 17.0804 16.1184 17.0816 16.6392 17.0743C16.7935 17.0718 16.8236 17.1368 16.8199 17.2679C16.8123 17.5313 16.8174 17.796 16.8174 18.0595H16.8186Z" fill="white"/>
<path d="M18.8421 18.9589C18.5912 18.9589 18.3402 18.9553 18.0905 18.9602C17.975 18.9626 17.9324 18.9222 17.9336 18.807C17.9386 18.2887 17.9386 17.7703 17.9336 17.2508C17.9324 17.1038 18.0014 17.0719 18.1369 17.0743C18.6275 17.0792 19.1194 17.0792 19.6101 17.0743C19.7456 17.0731 19.8134 17.105 19.8121 17.252C19.8071 17.7703 19.8071 18.2887 19.8121 18.8082C19.8121 18.9234 19.7694 18.9638 19.654 18.9614C19.383 18.9565 19.1132 18.9602 18.8421 18.9602V18.9589Z" fill="white"/>
<path d="M57.6954 3.78654C57.6954 3.51329 57.6967 3.23881 57.6954 2.96556C57.6954 2.88346 57.7205 2.8418 57.8134 2.8418C58.3442 2.84425 58.875 2.84302 59.4057 2.8418C59.4999 2.8418 59.5551 2.86385 59.5538 2.97168C59.5513 3.50961 59.5513 4.04754 59.5538 4.58424C59.5538 4.68227 59.5162 4.72516 59.4133 4.72516C58.8825 4.72271 58.3517 4.72148 57.8209 4.72516C57.7042 4.72516 57.6941 4.66389 57.6954 4.57689C57.6979 4.31344 57.6954 4.04877 57.6954 3.78532V3.78654Z" fill="white"/>
<path d="M60.706 3.76627C60.706 3.5212 60.7111 3.27736 60.7035 3.03229C60.6998 2.90363 60.7198 2.83746 60.8792 2.83991C61.3899 2.84971 61.9019 2.84481 62.4126 2.84236C62.5255 2.84236 62.5707 2.87422 62.5695 2.99308C62.5644 3.5212 62.5644 4.04933 62.5695 4.57745C62.5695 4.69386 62.5218 4.7294 62.4088 4.72817C61.8881 4.7245 61.3661 4.7245 60.8453 4.72817C60.7399 4.72817 60.7048 4.68651 60.706 4.58848C60.7098 4.31523 60.706 4.04075 60.706 3.7675V3.76627Z" fill="white"/>
<path d="M48.8452 18.0105C48.8452 17.7568 48.849 17.5032 48.844 17.2495C48.8414 17.1356 48.8603 17.0718 49.0046 17.0743C49.514 17.0816 50.0248 17.0804 50.5355 17.0743C50.6597 17.0743 50.7149 17.1037 50.7137 17.2373C50.7074 17.7642 50.7099 18.2923 50.7137 18.8192C50.7137 18.916 50.6886 18.9613 50.5806 18.9601C50.0498 18.9564 49.5203 18.9552 48.9895 18.9613C48.8565 18.9625 48.8452 18.9025 48.8465 18.8008C48.8502 18.5374 48.8477 18.2739 48.8477 18.0105H48.8452Z" fill="white"/>
<path d="M53.7202 18.0269C53.7202 18.2916 53.7177 18.555 53.7214 18.8197C53.7227 18.9177 53.6926 18.9606 53.5859 18.9594C53.0539 18.9557 52.5231 18.9557 51.991 18.9594C51.8843 18.9594 51.8555 18.9165 51.8555 18.8185C51.8593 18.2903 51.8605 17.761 51.8555 17.2329C51.8542 17.0956 51.917 17.0723 52.0374 17.0736C52.5394 17.0772 53.0401 17.0809 53.542 17.0723C53.6963 17.0699 53.7277 17.1299 53.7239 17.2623C53.7164 17.5159 53.7214 17.7708 53.7214 18.0257L53.7202 18.0269Z" fill="white"/>
<path d="M56.8511 19.9066C56.8511 20.3293 56.5211 20.6454 56.0894 20.6369C55.6728 20.6283 55.3403 20.3036 55.3478 19.909C55.3553 19.485 55.6803 19.1848 56.1195 19.1836C56.5273 19.1824 56.8762 19.5046 56.8511 19.9078V19.9066Z" fill="#058E94"/>
<path d="M56.8523 17.8175C56.8523 18.2354 56.5436 18.5368 56.1169 18.538C55.689 18.5393 55.3515 18.2341 55.3477 17.842C55.3427 17.4193 55.6677 17.0897 56.0918 17.086C56.5273 17.0811 56.8523 17.3948 56.8523 17.8175Z" fill="#058E94"/>
<path d="M39.6507 28.4388C39.6695 28.8187 39.3395 29.1593 38.9028 29.1471C38.4436 29.1336 38.1587 28.8469 38.1524 28.4364C38.1462 28.0136 38.4749 27.7 38.9091 27.7012C39.3583 27.7024 39.6545 27.9965 39.6507 28.4388Z" fill="#058E94"/>
<path d="M37.2021 27.709C37.63 27.7102 37.9437 28.0116 37.9563 28.4148C37.9663 28.7665 37.7216 29.1549 37.2046 29.1549C36.7617 29.1549 36.4517 28.8547 36.4492 28.4479C36.4467 28.0239 36.7705 27.7078 37.2021 27.709Z" fill="#058E94"/>
</g>
<defs>
<clipPath id="clip0_6299_27650">
<rect width="97" height="32" fill="white"/>
</clipPath>
</defs>
</svg>
